<svg width="303" height="217" viewBox="0 0 303 217" fill="none" xmlns="http://www.w3.org/2000/svg">
<g clip-path="url(#clip0_207_759)">
<path d="M291.838 173.427C288.908 173.478 281.51 173.605 278.677 173.636L274.238 173.656H274.02V173.422L274 167.619V167.365H274.243L283.043 167.4C285.235 167.42 289.65 167.466 291.843 167.502H291.959V167.624L291.843 173.427H291.838ZM291.838 173.427L291.721 167.624L291.838 167.746C289.64 167.777 285.235 167.828 283.038 167.848L274.238 167.884L274.48 167.629L274.461 173.432L274.238 173.198L278.599 173.218C281.388 173.249 288.951 173.381 291.833 173.427H291.838Z" fill="#EBEBEB"/>
<path d="M282.024 180.747C279.094 180.798 271.696 180.925 268.863 180.956L264.424 180.976H264.206V180.742L264.187 174.939V174.684H264.429L273.229 174.72C275.422 174.74 279.836 174.786 282.029 174.822H282.145V174.944L282.029 180.747H282.024ZM282.024 180.747L281.908 174.944L282.024 175.066C279.826 175.097 275.422 175.148 273.224 175.168L264.424 175.204L264.667 174.949L264.647 180.752L264.424 180.518L268.785 180.538C271.575 180.569 279.138 180.701 282.019 180.747H282.024Z" fill="#EBEBEB"/>
<path d="M29.1116 173.427C26.1816 173.478 18.7836 173.605 15.9506 173.636L11.5118 173.656H11.2935V173.422L11.2693 167.619V167.365H11.5118L20.3117 167.4C22.5044 167.42 26.919 167.466 29.1116 167.502H29.2281V167.624L29.1116 173.427ZM29.1116 173.427L28.9952 167.624L29.1116 167.746C26.9141 167.777 22.5093 167.828 20.3117 167.848L11.5118 167.884L11.7544 167.629L11.735 173.432L11.5118 173.198L15.873 173.218C18.6624 173.249 26.2252 173.381 29.1068 173.427H29.1116Z" fill="#EBEBEB"/>
<path d="M19.293 174.939H1.698V180.742H19.293V174.939Z" fill="#EBEBEB"/>
<path d="M301.652 174.939H284.057V180.742H301.652V174.939Z" fill="#EBEBEB"/>
<path d="M144.805 59.2615C141.875 59.3124 134.477 59.4397 131.644 59.4702L127.206 59.4906H126.987V59.2564L126.963 53.4535V53.199H127.206L136.006 53.2346C138.198 53.255 142.613 53.3008 144.805 53.3364H144.922V53.4586L144.805 59.2615ZM144.805 59.2615L144.689 53.4586L144.805 53.5807C142.608 53.6113 138.203 53.6622 136.006 53.6826L127.206 53.7182L127.448 53.4637L127.429 59.2666L127.206 59.0325L131.567 59.0528C134.356 59.0834 141.919 59.2157 144.801 59.2615H144.805Z" fill="#EBEBEB"/>
<path d="M134.987 60.7783H117.392V66.5813H134.987V60.7783Z" fill="#EBEBEB"/>
<path d="M154.619 66.5814C151.689 66.6323 144.291 66.7595 141.458 66.7901L137.019 66.8104H136.801V66.5763L136.782 60.7733V60.5188H137.024L145.824 60.5544C148.017 60.5748 152.431 60.6206 154.624 60.6562H154.741V60.7784L154.624 66.5814H154.619ZM154.619 66.5814L154.503 60.7784L154.619 60.9006C152.422 60.9311 148.017 60.982 145.819 61.0024L137.019 61.038L137.262 60.7835L137.243 66.5864L137.019 66.3523L141.381 66.3727C144.17 66.4032 151.733 66.5355 154.614 66.5814H154.619Z" fill="#EBEBEB"/>
<path d="M213.129 141.261H195.534V147.064H213.129V141.261Z" fill="#EBEBEB"/>
<path d="M291.547 10.7916C288.617 10.8425 281.219 10.9697 278.386 11.0003L273.947 11.0206H273.729V10.7865L273.709 4.98352V4.729H273.952L282.752 4.76464C284.944 4.785 289.359 4.83081 291.552 4.86644H291.668V4.98861L291.552 10.7916H291.547ZM291.547 10.7916L291.43 4.98861L291.547 5.11078C289.349 5.14132 284.944 5.19222 282.747 5.21258L273.947 5.24822L274.19 4.9937L274.17 10.7967L273.947 10.5625L278.308 10.5829C281.097 10.6134 288.66 10.7458 291.542 10.7916H291.547Z" fill="#EBEBEB"/>
<path d="M301.36 12.3032H283.765V18.1062H301.36V12.3032Z" fill="#EBEBEB"/>
<path d="M18.9437 10.7969C16.0136 10.8478 8.61568 10.9751 5.78263 11.0056L1.34387 11.026H1.12557V10.7918L1.10132 4.98889V4.73438H1.34387L10.1438 4.77001C12.3365 4.79037 16.751 4.83618 18.9437 4.87181H19.0601V4.99398L18.9437 10.7969ZM18.9437 10.7969L18.8273 4.99398L18.9437 5.11615C16.7461 5.14669 12.3413 5.19759 10.1438 5.21795L1.34387 5.25359L1.58643 4.99907L1.56702 10.802L1.34387 10.5679L5.70502 10.5882C8.4944 10.6188 16.0573 10.7511 18.9388 10.7969H18.9437Z" fill="#EBEBEB"/>
<path d="M78.7965 13.4741H38.0667V41.3792H78.7965V13.4741Z" fill="#DBDBDB"/>
<path d="M78.7965 43.0132H38.0667V70.9183H78.7965V43.0132Z" fill="#EBEBEB"/>
<path d="M46.0564 48.3784H42.0979V52.5321H46.0564V48.3784Z" fill="white"/>
<path d="M50.8396 48.3784H46.8811V52.5321H50.8396V48.3784Z" fill="#C7C7C7"/>
<path d="M55.6277 48.3784H51.6692V52.5321H55.6277V48.3784Z" fill="white"/>
<path d="M60.4109 48.3784H56.4524V52.5321H60.4109V48.3784Z" fill="white"/>
<path d="M65.199 48.3784H61.2405V52.5321H65.199V48.3784Z" fill="white"/>
<path d="M69.9819 48.3784H66.0234V52.5321H69.9819V48.3784Z" fill="white"/>
<path d="M74.7651 48.3784H70.8066V52.5321H74.7651V48.3784Z" fill="white"/>
<path d="M46.0564 53.4331H42.0979V57.5868H46.0564V53.4331Z" fill="white"/>
<path d="M50.8396 53.4331H46.8811V57.5868H50.8396V53.4331Z" fill="white"/>
<path d="M55.6277 53.4331H51.6692V57.5868H55.6277V53.4331Z" fill="white"/>
<path d="M60.4109 53.4331H56.4524V57.5868H60.4109V53.4331Z" fill="white"/>
<path d="M65.199 53.4331H61.2405V57.5868H65.199V53.4331Z" fill="#C7C7C7"/>
<path d="M69.9819 53.4331H66.0234V57.5868H69.9819V53.4331Z" fill="white"/>
<path d="M74.7651 53.4331H70.8066V57.5868H74.7651V53.4331Z" fill="white"/>
<path d="M46.0564 58.4929H42.0979V62.6466H46.0564V58.4929Z" fill="white"/>
<path d="M50.8396 58.4929H46.8811V62.6466H50.8396V58.4929Z" fill="white"/>
<path d="M55.6277 58.4929H51.6692V62.6466H55.6277V58.4929Z" fill="white"/>
<path d="M60.4109 58.4929H56.4524V62.6466H60.4109V58.4929Z" fill="white"/>
<path d="M65.199 58.4929H61.2405V62.6466H65.199V58.4929Z" fill="white"/>
<path d="M69.9819 58.4929H66.0234V62.6466H69.9819V58.4929Z" fill="white"/>
<path d="M74.7651 58.4929H70.8066V62.6466H74.7651V58.4929Z" fill="white"/>
<path d="M46.0564 63.5476H42.0979V67.7013H46.0564V63.5476Z" fill="white"/>
<path d="M50.8396 63.5476H46.8811V67.7013H50.8396V63.5476Z" fill="white"/>
<path d="M55.6277 63.5476H51.6692V67.7013H55.6277V63.5476Z" fill="#C7C7C7"/>
<path d="M60.4109 63.5476H56.4524V67.7013H60.4109V63.5476Z" fill="white"/>
<path d="M65.199 63.5476H61.2405V67.7013H65.199V63.5476Z" fill="white"/>
<path d="M69.9819 63.5476H66.0234V67.7013H69.9819V63.5476Z" fill="white"/>
<path d="M74.7651 63.5476H70.8066V67.7013H74.7651V63.5476Z" fill="white"/>
<path d="M41.2101 40.0505H39.6626V44.3417H41.2101V40.0505Z" fill="#C7C7C7"/>
<path d="M44.8097 40.0505H43.2622V44.3417H44.8097V40.0505Z" fill="#C7C7C7"/>
<path d="M48.4091 40.0505H46.8616V44.3417H48.4091V40.0505Z" fill="#C7C7C7"/>
<path d="M52.0087 40.0505H50.4612V44.3417H52.0087V40.0505Z" fill="#C7C7C7"/>
<path d="M55.6083 40.0505H54.0608V44.3417H55.6083V40.0505Z" fill="#C7C7C7"/>
<path d="M59.2077 40.0505H57.6602V44.3417H59.2077V40.0505Z" fill="#C7C7C7"/>
<path d="M62.8073 40.0505H61.2598V44.3417H62.8073V40.0505Z" fill="#C7C7C7"/>
<path d="M66.4066 40.0505H64.8591V44.3417H66.4066V40.0505Z" fill="#C7C7C7"/>
<path d="M70.0062 40.0505H68.4587V44.3417H70.0062V40.0505Z" fill="#C7C7C7"/>
<path d="M73.6059 40.0505H72.0583V44.3417H73.6059V40.0505Z" fill="#C7C7C7"/>
<path d="M77.2052 40.0505H75.6577V44.3417H77.2052V40.0505Z" fill="#C7C7C7"/>
<path d="M59.0865 16.3296C59.0865 16.7062 58.7954 17.0117 58.4364 17.0117C58.0774 17.0117 57.7864 16.7062 57.7864 16.3296C57.7864 15.9529 58.0774 15.6475 58.4364 15.6475C58.7954 15.6475 59.0865 15.9529 59.0865 16.3296Z" fill="#263238"/>
<path d="M27.8162 111.677V216.511H88.5083V111.677H27.8162ZM33.327 150.724H82.9975V178.151H33.327V150.724ZM33.327 116.767H82.9975V144.193H33.327V116.767Z" fill="#DBDBDB"/>
<path d="M0.373461 216.511H27.8162L27.8162 111.676H0.373461L0.373461 216.511Z" fill="#EBEBEB"/>
<path d="M71.1948 144.188H82.9976V116.767H71.1948V144.188Z" fill="#EBEBEB"/>
<path d="M33.327 209.899H82.687V183.75H33.327V209.899Z" stroke="#EBEBEB" stroke-width="0.5" stroke-miterlimit="10"/>
<path d="M53.1051 194.867H62.9092V191.106H53.1051V194.867Z" fill="#EBEBEB"/>
<path d="M71.1948 178.151H82.9976V150.729H71.1948V178.151Z" fill="#EBEBEB"/>
<path d="M48.4238 178.151V152.867H40.1187V178.151H48.4238Z" fill="#A6A6A6"/>
<path d="M48.4238 174.094V168.637H40.1187V174.094H48.4238Z" fill="#DBDBDB"/>
<path d="M48.4238 164.239V161.002H40.1187V164.239H48.4238Z" fill="#DBDBDB"/>
<path d="M47.531 144.188H68.5168V123.028H47.531V144.188Z" fill="#EBEBEB"/>
<path d="M39.5558 144.188H47.531V123.028H39.5558V144.188Z" fill="#C7C7C7"/>
<path d="M68.5169 133.611H47.5261L63.918 134.155L68.5169 133.611Z" fill="#C7C7C7"/>
<path d="M47.5261 141.638H68.5169L52.125 142.183L47.5261 141.638Z" fill="#C7C7C7"/>
<path d="M68.5169 127.696H55.22L67.0373 128.144L68.5169 127.696Z" fill="#C7C7C7"/>
<path d="M47.5261 138.523H60.823L49.0057 138.966L47.5261 138.523Z" fill="#C7C7C7"/>
<path d="M63.4816 125.344H48.4868L50.9851 125.609L63.4816 125.344Z" fill="#C7C7C7"/>
<path d="M66.4747 135.881H51.48L53.9783 136.146L66.4747 135.881Z" fill="#C7C7C7"/>
<path d="M57.2527 129.711H47.5262L45.7896 130.424L57.2527 129.711Z" fill="#EBEBEB"/>
<path d="M71.1948 129.711H61.4684L59.7317 130.424L71.1948 129.711Z" fill="#EBEBEB"/>
<path d="M58.7129 139.22H68.4394L70.1761 139.933L58.7129 139.22Z" fill="#EBEBEB"/>
<path d="M47.5262 136.807H39.7208L37.9792 137.52L47.5262 136.807Z" fill="#C7C7C7"/>
<path d="M44.8046 133.611H38.7456L39.5509 133.03L44.8046 133.611Z" fill="#C7C7C7"/>
<path d="M40.1238 151.172H33.3274V178.146H40.1238V151.172Z" fill="#EBEBEB"/>
<path d="M36.7229 156.497C37.5039 156.497 38.1394 155.83 38.1394 155.011C38.1394 154.191 37.5039 153.524 36.7229 153.524C35.9419 153.524 35.3064 154.191 35.3064 155.011C35.3064 155.83 35.9419 156.497 36.7229 156.497Z" fill="white"/>
<path d="M36.723 155.861C37.1693 155.861 37.5331 155.479 37.5331 155.01C37.5331 154.542 37.1693 154.16 36.723 154.16C36.2767 154.16 35.9128 154.542 35.9128 155.01C35.9128 155.479 36.2767 155.861 36.723 155.861Z" fill="#A6A6A6"/>
<path d="M40.1187 173.895V167.334H33.3222V173.895H40.1187Z" fill="white"/>
<path d="M74.1298 172.582H48.4238V178.192H74.1298V172.582Z" fill="#C7C7C7"/>
<path d="M53.4981 175.382C53.4981 174.562 52.8626 173.895 52.0816 173.895C51.3005 173.895 50.665 174.562 50.665 175.382C50.665 176.201 51.3005 176.868 52.0816 176.868C52.8626 176.868 53.4981 176.201 53.4981 175.382Z" fill="white"/>
<path d="M52.8918 175.382C52.8918 174.913 52.5279 174.531 52.0816 174.531C51.6353 174.531 51.2715 174.913 51.2715 175.382C51.2715 175.85 51.6353 176.232 52.0816 176.232C52.5279 176.232 52.8918 175.85 52.8918 175.382Z" fill="#A6A6A6"/>
<path d="M70.0792 172.582H63.8262V178.192H70.0792V172.582Z" fill="white"/>
<path d="M270.415 7.62549H208.889V79.6534H270.415V7.62549Z" fill="#DBDBDB"/>
<path d="M266.364 11.876H212.944V75.4387H266.364V11.876Z" fill="#EBEBEB"/>
<path d="M236.603 23.1152H217.771V46.5256H236.603V23.1152Z" fill="white"/>
<path d="M227.861 24.7085C227.861 25.1004 227.56 25.4211 227.182 25.4211C226.804 25.4211 226.503 25.1055 226.503 24.7085C226.503 24.3114 226.804 23.9958 227.182 23.9958C227.56 23.9958 227.861 24.3114 227.861 24.7085Z" fill="#455A64"/>
<path d="M221.356 27.8085C223.258 27.6558 225.164 27.6456 227.066 27.6252C228.967 27.6456 230.874 27.6558 232.775 27.8085C230.874 27.9612 228.967 27.9714 227.066 27.9917C225.164 27.9714 223.258 27.9612 221.356 27.8085Z" fill="#EBEBEB"/>
<path d="M221.356 29.6564C222.389 29.5138 223.427 29.4782 224.461 29.468C225.494 29.4731 226.532 29.5087 227.565 29.6564C226.532 29.804 225.494 29.8345 224.461 29.8396C223.427 29.8345 222.389 29.7989 221.356 29.6564Z" fill="#EBEBEB"/>
<path d="M221.356 31.5091C222.68 31.3666 224 31.331 225.324 31.3208C226.649 31.3259 227.968 31.3615 229.292 31.5091C227.968 31.6568 226.649 31.6873 225.324 31.6924C224 31.6873 222.68 31.6517 221.356 31.5091Z" fill="#EBEBEB"/>
<path d="M221.356 33.357C223.01 33.2145 224.664 33.1789 226.319 33.1687C227.973 33.1738 229.627 33.2094 231.281 33.357C229.627 33.5047 227.973 33.5352 226.319 33.5403C224.664 33.5352 223.01 33.4996 221.356 33.357Z" fill="#EBEBEB"/>
<path d="M221.356 35.2098C222.792 35.0673 224.233 35.0317 225.669 35.0215C227.105 35.0266 228.545 35.0622 229.981 35.2098C228.545 35.3574 227.105 35.388 225.669 35.3931C224.233 35.388 222.792 35.3524 221.356 35.2098Z" fill="#EBEBEB"/>
<path d="M221.356 37.0575C223.195 36.9048 225.038 36.8946 226.877 36.8743C228.715 36.8946 230.559 36.9048 232.397 37.0575C230.559 37.2102 228.715 37.2204 226.877 37.2408C225.038 37.2204 223.195 37.2102 221.356 37.0575Z" fill="#EBEBEB"/>
<path d="M221.356 38.9105C222.544 38.768 223.733 38.7323 224.922 38.7222C226.11 38.7273 227.299 38.7629 228.487 38.9105C227.299 39.0581 226.11 39.0887 224.922 39.0938C223.733 39.0887 222.544 39.053 221.356 38.9105Z" fill="#EBEBEB"/>
<path d="M221.356 40.7582C223.258 40.6055 225.164 40.5953 227.066 40.575C228.967 40.5953 230.874 40.6055 232.775 40.7582C230.874 40.9109 228.967 40.9211 227.066 40.9415C225.164 40.9211 223.258 40.9109 221.356 40.7582Z" fill="#EBEBEB"/>
<path d="M221.356 42.6112C223.258 42.4585 225.164 42.4483 227.066 42.428C228.967 42.4483 230.874 42.4585 232.775 42.6112C230.874 42.7639 228.967 42.7741 227.066 42.7945C225.164 42.7741 223.258 42.7639 221.356 42.6112Z" fill="#EBEBEB"/>
<path d="M261.746 37.7144H239.465V65.4158H261.746V37.7144Z" fill="white"/>
<path d="M251.282 41.4507C251.282 41.8426 250.982 42.1633 250.603 42.1633C250.225 42.1633 249.924 41.8477 249.924 41.4507C249.924 41.0536 250.225 40.738 250.603 40.738C250.982 40.738 251.282 41.0536 251.282 41.4507Z" fill="#455A64"/>
<path d="M242.584 44.6271C243.409 44.4845 244.234 44.4489 245.053 44.4387C245.878 44.4438 246.703 44.4794 247.523 44.6271C246.698 44.7747 245.873 44.8052 245.053 44.8154C244.229 44.8103 243.404 44.7747 242.584 44.6271Z" fill="#EBEBEB"/>
<path d="M242.584 46.714C243.651 46.5714 244.719 46.5358 245.781 46.5256C246.848 46.5307 247.916 46.5664 248.978 46.714C247.911 46.8616 246.843 46.8921 245.781 46.9023C244.714 46.8972 243.647 46.8616 242.584 46.714Z" fill="#EBEBEB"/>
<path d="M242.584 48.8063C243.574 48.6637 244.559 48.6281 245.548 48.6179C246.538 48.623 247.523 48.6586 248.512 48.8063C247.523 48.9539 246.538 48.9844 245.548 48.9946C244.559 48.9895 243.574 48.9539 242.584 48.8063Z" fill="#EBEBEB"/>
<path d="M242.584 50.8932C243.574 50.7506 244.559 50.715 245.548 50.7048C246.538 50.7099 247.523 50.7456 248.512 50.8932C247.523 51.0408 246.538 51.0713 245.548 51.0815C244.559 51.0764 243.574 51.0408 242.584 50.8932Z" fill="#EBEBEB"/>
<path d="M242.584 52.9803C243.443 52.8378 244.302 52.8022 245.16 52.792C246.019 52.7971 246.877 52.8327 247.736 52.9803C246.877 53.128 246.019 53.1585 245.16 53.1687C244.302 53.1636 243.443 53.128 242.584 52.9803Z" fill="#EBEBEB"/>
<path d="M242.584 55.0724C243.681 54.9298 244.782 54.8942 245.878 54.884C246.974 54.8891 248.076 54.9248 249.172 55.0724C248.076 55.22 246.974 55.2505 245.878 55.2607C244.782 55.2556 243.681 55.22 242.584 55.0724Z" fill="#EBEBEB"/>
<path d="M242.584 57.1593C243.491 57.0168 244.399 56.9811 245.306 56.9709C246.213 56.976 247.12 57.0117 248.027 57.1593C247.12 57.3069 246.213 57.3375 245.306 57.3476C244.399 57.3425 243.491 57.3069 242.584 57.1593Z" fill="#EBEBEB"/>
<path d="M242.584 59.2465C243.719 59.104 244.859 59.0683 245.995 59.0632C247.13 59.0683 248.27 59.104 249.405 59.2465C248.27 59.3941 247.13 59.4246 245.995 59.4348C244.859 59.4297 243.719 59.3941 242.584 59.2465Z" fill="#EBEBEB"/>
<path d="M242.584 61.3385C243.719 61.196 244.859 61.1603 245.995 61.1501C247.13 61.1552 248.27 61.1909 249.405 61.3385C248.27 61.4861 247.13 61.5167 245.995 61.5217C244.859 61.5167 243.719 61.481 242.584 61.3385Z" fill="#EBEBEB"/>
<path d="M252.321 44.6271C253.398 44.4845 254.479 44.4489 255.556 44.4387C256.633 44.4438 257.715 44.4794 258.792 44.6271C257.715 44.7747 256.633 44.8052 255.556 44.8154C254.479 44.8103 253.398 44.7747 252.321 44.6271Z" fill="#EBEBEB"/>
<path d="M252.321 46.714C253.029 46.5714 253.737 46.5358 254.45 46.5256C255.158 46.5307 255.867 46.5664 256.58 46.714C255.872 46.8616 255.163 46.8921 254.45 46.9023C253.742 46.8972 253.034 46.8616 252.321 46.714Z" fill="#EBEBEB"/>
<path d="M252.321 48.8063C253.334 48.6637 254.353 48.6281 255.367 48.6179C256.381 48.623 257.4 48.6586 258.414 48.8063C257.4 48.9539 256.381 48.9844 255.367 48.9946C254.353 48.9895 253.334 48.9539 252.321 48.8063Z" fill="#EBEBEB"/>
<path d="M252.321 50.8932C253.31 50.7506 254.295 50.715 255.285 50.7048C256.274 50.7099 257.259 50.7456 258.249 50.8932C257.259 51.0408 256.274 51.0713 255.285 51.0815C254.295 51.0764 253.31 51.0408 252.321 50.8932Z" fill="#EBEBEB"/>
<path d="M252.321 52.9803C253.398 52.8378 254.479 52.8022 255.556 52.792C256.633 52.7971 257.715 52.8327 258.792 52.9803C257.715 53.128 256.633 53.1585 255.556 53.1687C254.479 53.1636 253.398 53.128 252.321 52.9803Z" fill="#EBEBEB"/>
<path d="M252.321 55.0724C253.179 54.9298 254.038 54.8942 254.896 54.884C255.755 54.8891 256.614 54.9248 257.472 55.0724C256.614 55.22 255.755 55.2505 254.896 55.2607C254.038 55.2556 253.179 55.22 252.321 55.0724Z" fill="#EBEBEB"/>
<path d="M252.321 57.1593C253.334 57.0168 254.353 56.9811 255.367 56.9709C256.381 56.976 257.4 57.0117 258.414 57.1593C257.4 57.3069 256.381 57.3375 255.367 57.3476C254.353 57.3425 253.334 57.3069 252.321 57.1593Z" fill="#EBEBEB"/>
<path d="M252.321 59.2465C253.106 59.104 253.892 59.0683 254.678 59.0632C255.464 59.0683 256.25 59.104 257.036 59.2465C256.25 59.3941 255.464 59.4246 254.678 59.4348C253.892 59.4297 253.106 59.3941 252.321 59.2465Z" fill="#EBEBEB"/>
<path d="M252.321 61.3385C253.072 61.196 253.829 61.1603 254.581 61.1501C255.333 61.1552 256.09 61.1909 256.842 61.3385C256.09 61.4861 255.333 61.5167 254.581 61.5217C253.829 61.5167 253.072 61.481 252.321 61.3385Z" fill="#EBEBEB"/>
<path d="M246.198 16.6812H234.871V28.567H246.198V16.6812Z" fill="#C7C7C7"/>
<path d="M241.212 17.8874C241.212 18.2794 240.911 18.6001 240.532 18.6001C240.154 18.6001 239.853 18.2845 239.853 17.8874C239.853 17.4904 240.154 17.1748 240.532 17.1748C240.911 17.1748 241.212 17.4904 241.212 17.8874Z" fill="#455A64"/>
<path d="M266.311 11.876H264.783V75.5049H266.311V11.876Z" fill="#C7C7C7"/>
<path d="M268.378 172.088L267.16 173.381L267.116 172.908V172.903L267.897 172.088H268.378Z" fill="#DBDBDB"/>
<path d="M273.006 172.088L268.853 176.476L267.514 177.871L267.49 177.581V177.571L267.48 177.408L268.606 176.217L272.559 172.088H273.006Z" fill="#DBDBDB"/>
<path d="M277.643 172.088L271.177 178.92L267.883 182.356L267.878 182.284L267.849 181.908L270.929 178.65L277.221 172.088H277.643Z" fill="#DBDBDB"/>
<path d="M282.276 172.088L273.505 181.358L268.247 186.835L268.208 186.413L273.248 181.093L281.878 172.088H282.276Z" fill="#DBDBDB"/>
<path d="M286.89 172.088C286.264 172.765 285.633 173.437 285.002 174.109L275.824 183.801L268.606 191.33L268.577 190.928L275.577 183.531L284.804 173.911C285.386 173.3 285.973 172.694 286.565 172.093H286.89V172.088Z" fill="#DBDBDB"/>
<path d="M291.503 172.088C290.111 173.58 288.718 175.061 287.321 176.542L278.153 186.234L268.97 195.804L268.94 195.433L277.9 185.975L287.137 176.344C288.505 174.924 289.878 173.509 291.256 172.093H291.513L291.503 172.088Z" fill="#DBDBDB"/>
<path d="M296.092 172.088C293.958 174.399 291.804 176.69 289.645 178.986L280.476 188.668L271.24 198.298C270.609 198.96 269.969 199.617 269.329 200.273L269.3 199.963C269.877 199.337 270.464 198.721 271.046 198.1L280.224 188.408L289.451 178.787C291.61 176.547 293.783 174.313 295.952 172.093H296.087L296.092 172.088Z" fill="#DBDBDB"/>
<path d="M300.613 172.144V172.175C297.746 175.275 294.87 178.354 291.974 181.424L282.795 191.116L273.569 200.737C272.278 202.07 270.983 203.404 269.692 204.738L269.673 204.493C270.9 203.175 272.137 201.856 273.379 200.538L282.548 190.846L291.784 181.225C294.71 178.186 297.654 175.163 300.613 172.144Z" fill="#DBDBDB"/>
<path d="M300.191 177.393V177.408L300.177 177.571C298.217 179.678 296.257 181.78 294.292 183.862L285.124 193.544L275.887 203.175C273.952 205.186 272.006 207.196 270.047 209.192V209.171L270.032 209.024C271.914 206.998 273.801 204.982 275.698 202.966L284.867 193.284L294.103 183.654C296.126 181.562 298.154 179.469 300.191 177.387V177.393Z" fill="#DBDBDB"/>
<path d="M299.769 182.651L299.74 182.977C298.702 184.086 297.669 185.191 296.626 186.301L287.447 195.993L278.221 205.613C275.708 208.22 273.18 210.821 270.648 213.401H270.561C273.03 210.719 275.523 208.062 278.022 205.41L287.2 195.718L296.427 186.097C297.543 184.942 298.654 183.796 299.769 182.651Z" fill="#DBDBDB"/>
<path d="M299.342 187.924L299.308 188.347C299.187 188.474 299.066 188.606 298.945 188.734L289.776 198.426L280.539 208.046C278.812 209.843 277.081 211.62 275.349 213.401H275.145C276.877 211.548 278.609 209.69 280.345 207.843L289.514 198.161L298.751 188.53C298.949 188.331 299.139 188.123 299.337 187.919L299.342 187.924Z" fill="#DBDBDB"/>
<path d="M298.906 193.234L298.872 193.702L292.095 200.859L282.858 210.49C281.922 211.467 280.986 212.434 280.04 213.401H279.744C280.714 212.358 281.689 211.325 282.669 210.286L291.847 200.594L298.911 193.229L298.906 193.234Z" fill="#DBDBDB"/>
<path d="M298.484 198.538L298.44 199.052L294.414 203.302L285.187 212.923C285.031 213.081 284.881 213.243 284.726 213.401H284.357C284.571 213.177 284.784 212.948 284.998 212.724L294.166 203.032L298.484 198.532V198.538Z" fill="#DBDBDB"/>
<path d="M298.047 203.847L298.008 204.407L296.742 205.741L289.388 213.407H288.985L296.49 205.481L298.047 203.847Z" fill="#DBDBDB"/>
<path d="M297.625 209.176V209.197L297.582 209.731L294.06 213.406H293.618L297.625 209.176Z" fill="#DBDBDB"/>
<path d="M300.555 172.903L300.512 173.386L299.289 172.088H299.774L300.555 172.903Z" fill="#DBDBDB"/>
<path d="M300.191 177.408L300.153 177.871L298.814 176.476L294.656 172.088H295.112L299.066 176.217L300.191 177.408Z" fill="#DBDBDB"/>
<path d="M299.823 181.908L299.794 182.284L299.789 182.361L296.49 178.92L290.023 172.088H290.445L296.742 178.65L299.823 181.908Z" fill="#DBDBDB"/>
<path d="M299.464 186.423L299.425 186.845L294.166 181.358L285.396 172.088H285.784L294.414 181.093L299.464 186.423Z" fill="#DBDBDB"/>
<path d="M299.1 190.933L299.066 191.33L291.848 183.801L282.669 174.109C282.039 173.437 281.408 172.77 280.782 172.088H281.102C281.689 172.694 282.281 173.295 282.863 173.906L292.1 183.526L299.105 190.928L299.1 190.933Z" fill="#DBDBDB"/>
<path d="M298.731 195.433L298.702 195.804L289.519 186.234L280.35 176.542C278.953 175.061 277.561 173.58 276.169 172.088H276.426C277.794 173.503 279.172 174.919 280.544 176.339L289.781 185.97L298.741 195.427L298.731 195.433Z" fill="#DBDBDB"/>
<path d="M298.367 199.963L298.338 200.284C297.698 199.622 297.062 198.965 296.422 198.304L287.195 188.673L278.017 178.991C275.868 176.695 273.714 174.405 271.58 172.094H271.715C273.889 174.313 276.057 176.548 278.216 178.787L287.443 188.408L296.621 198.1C297.203 198.716 297.785 199.337 298.367 199.963Z" fill="#DBDBDB"/>
<path d="M297.999 204.488L297.984 204.733C296.684 203.414 295.394 202.076 294.103 200.732L284.867 191.111L275.698 181.419C272.802 178.35 269.925 175.265 267.058 172.17V172.139C270.018 175.158 272.962 178.182 275.887 181.221L285.124 190.841L294.292 200.533C295.534 201.852 296.771 203.17 297.999 204.488Z" fill="#DBDBDB"/>
<path d="M297.64 209.024L297.625 209.197C295.665 207.201 293.72 205.191 291.784 203.18L282.548 193.549L273.379 183.867C271.415 181.78 269.445 179.683 267.495 177.581L267.48 177.393C269.518 179.469 271.546 181.562 273.569 183.659L282.795 193.29L291.974 202.971C293.87 204.982 295.758 207.003 297.64 209.029V209.024Z" fill="#DBDBDB"/>
<path d="M297.111 213.406H297.024C294.491 210.82 291.964 208.224 289.451 205.618L280.224 195.997L271.046 186.306C270.003 185.196 268.965 184.091 267.931 182.982L267.902 182.656C269.018 183.801 270.129 184.952 271.24 186.102L280.476 195.723L289.645 205.415C292.143 208.067 294.642 210.724 297.111 213.406Z" fill="#DBDBDB"/>
<path d="M292.527 213.406H292.323C290.586 211.625 288.859 209.848 287.132 208.051L277.896 198.431L268.727 188.739C268.606 188.612 268.485 188.479 268.363 188.352L268.329 187.935C268.528 188.128 268.717 188.337 268.916 188.54L278.153 198.171L287.321 207.853C289.058 209.701 290.79 211.554 292.522 213.412L292.527 213.406Z" fill="#DBDBDB"/>
<path d="M287.918 213.407H287.627C286.681 212.439 285.74 211.472 284.804 210.495L275.577 200.864L268.8 193.712L268.766 193.234L275.829 200.599L285.007 210.291C285.978 211.325 286.958 212.363 287.923 213.407H287.918Z" fill="#DBDBDB"/>
<path d="M283.314 213.406H282.946C282.79 213.249 282.64 213.086 282.485 212.928L273.248 203.307L269.232 199.062L269.188 198.543L273.505 203.043L282.674 212.735C282.888 212.958 283.101 213.188 283.314 213.412V213.406Z" fill="#DBDBDB"/>
<path d="M278.687 213.406H278.284L270.93 205.74L269.663 204.407V204.402L269.615 203.857L271.177 205.481L278.687 213.406Z" fill="#DBDBDB"/>
<path d="M274.049 213.406H273.612L270.09 209.731L270.047 209.176L274.049 213.406Z" fill="#DBDBDB"/>
<path d="M267.401 172.151L266.696 172.218L270.279 213.452L270.984 213.384L267.401 172.151Z" fill="#DBDBDB"/>
<path d="M300.339 172.119L296.721 213.349L297.427 213.417L301.044 172.187L300.339 172.119Z" fill="#DBDBDB"/>
<path d="M302.631 167.578H264.982V174.267H302.631V167.578Z" fill="#DBDBDB"/>
<path d="M298.746 209.823H268.863V216.511H298.746V209.823Z" fill="#DBDBDB"/>
<path d="M161.838 176.98C161.838 176.98 151.573 174.537 145.946 169.1C140.318 163.659 137.175 153.916 137.175 153.916C137.175 153.916 143.219 155.076 148.686 157.087C149.603 158.12 151.355 160.243 152.17 162.254C152.17 162.254 152.344 160.131 152.199 158.558C153.664 159.266 154.935 160.05 155.856 160.884C160.523 165.165 161.838 176.975 161.838 176.975V176.98Z" fill="#FFC727"/>
<path d="M143.588 158.655C142.191 157.637 140.765 156.659 139.372 155.631C139.29 155.57 139.368 155.433 139.455 155.489C142.099 157.148 144.709 158.92 147.231 160.772C148.109 161.419 148.973 162.091 149.827 162.778C149.768 162.671 149.71 162.564 149.647 162.457C149.341 161.918 149.016 161.383 148.691 160.854C148.037 159.79 147.328 158.741 146.513 157.8C146.484 157.764 146.533 157.713 146.562 157.749C147.362 158.716 148.158 159.673 148.89 160.701C149.24 161.19 149.56 161.694 149.865 162.213C150.025 162.483 150.181 162.753 150.326 163.027C150.375 163.119 150.428 163.211 150.482 163.307C151.811 164.402 153.101 165.542 154.333 166.748C155.095 167.492 155.827 168.265 156.536 169.059C156.138 167.756 155.793 166.438 155.333 165.155C155.318 165.109 155.386 165.094 155.401 165.14C155.847 166.484 156.337 167.838 156.681 169.222C157.467 170.113 158.219 171.04 158.927 171.997C158.918 171.941 158.903 171.88 158.888 171.824C158.772 171.314 158.651 170.811 158.52 170.307C158.268 169.334 157.996 168.362 157.685 167.41C157.045 165.45 156.211 163.537 154.93 161.943C154.901 161.908 154.949 161.857 154.978 161.892C156.982 164.382 158.161 167.37 158.908 170.505C159.019 170.963 159.121 171.426 159.223 171.885C159.277 172.129 159.34 172.378 159.378 172.628C159.689 173.066 159.995 173.514 160.286 173.967C162.066 176.751 163.458 179.79 164.627 182.905C165.947 186.412 166.97 190.032 167.916 193.666C167.936 193.737 167.834 193.763 167.81 193.692C165.801 187.39 163.754 180.996 160.315 175.361C159.587 174.17 158.806 173.025 157.972 171.92C156.283 171.818 154.581 171.437 152.98 170.877C151.209 170.261 149.54 169.401 147.978 168.342C147.076 167.731 146.251 167.018 145.412 166.311C145.373 166.28 145.412 166.219 145.456 166.255C146.843 167.487 148.512 168.454 150.161 169.243C151.816 170.037 153.562 170.658 155.337 171.065C156.094 171.238 156.866 171.365 157.632 171.477C156.681 170.251 155.672 169.08 154.605 167.96C154.261 167.599 153.902 167.247 153.543 166.901C152.364 166 151.059 165.282 149.749 164.621C148.066 163.766 146.411 162.865 144.747 161.974C143.806 161.475 142.875 160.961 141.929 160.472C141.89 160.452 141.929 160.391 141.968 160.411C143.656 161.266 145.368 162.065 147.071 162.885C148.672 163.654 150.297 164.427 151.835 165.333C151.903 165.374 151.961 165.415 152.029 165.456C150.637 164.183 149.201 162.977 147.726 161.806C146.363 160.727 144.985 159.673 143.583 158.655H143.588Z" fill="#263238"/>
<path d="M144.17 164.208C145.005 164.59 145.853 164.931 146.683 165.339C147.532 165.756 148.337 166.245 149.143 166.743C149.177 166.764 149.143 166.82 149.109 166.799C148.289 166.387 147.459 166.005 146.649 165.578C145.82 165.14 145 164.672 144.146 164.28C144.107 164.259 144.126 164.188 144.165 164.208H144.17Z" fill="#263238"/>
<path d="M195.184 122.702C195.184 122.702 192.303 126.163 192.118 131.646C192.085 132.613 192.23 133.957 192.337 135.54C188.509 137.683 185.637 141.546 185.637 141.546C187.811 140.177 190.794 139.622 192.405 139.846C192.351 140.89 192.235 141.969 192.012 143.063C191.299 143.023 189.926 143.119 187.66 143.964C187.66 143.964 189.887 143.903 191.585 144.784C189.756 150.892 184.318 157.169 169.299 159.831C169.299 159.831 166.403 149.131 171.957 137.652C176.459 128.363 195.184 122.692 195.184 122.692V122.702Z" fill="#FFC727"/>
<path d="M164.099 185.975C164.36 183.363 164.686 180.762 165.069 178.171C165.835 172.984 166.835 167.823 168.096 162.742C168.693 160.345 169.406 157.998 170.264 155.713C170.206 155.3 170.216 154.868 170.211 154.45C170.201 153.946 170.196 153.442 170.206 152.938C170.216 151.931 170.264 150.923 170.342 149.915C170.502 147.93 170.793 145.939 171.264 144.005C171.54 142.88 171.855 141.775 172.171 140.666C172.185 140.62 172.248 140.64 172.239 140.686C171.71 142.605 171.404 144.606 171.128 146.586C170.856 148.546 170.691 150.521 170.623 152.501C170.604 153.04 170.594 153.585 170.594 154.124C170.594 154.354 170.604 154.588 170.614 154.822C171.351 152.949 172.185 151.111 173.146 149.324C174.659 146.499 176.401 143.817 178.288 141.256C178.269 140.966 178.356 140.656 178.409 140.376C178.482 140.024 178.555 139.673 178.628 139.322C178.783 138.604 178.953 137.886 179.142 137.174C179.515 135.743 180.01 134.364 180.432 132.954C180.447 132.908 180.51 132.928 180.5 132.974C180.102 134.369 179.84 135.815 179.535 137.235C179.384 137.937 179.239 138.64 179.088 139.342C179.016 139.693 178.943 140.045 178.875 140.396C178.87 140.421 178.865 140.447 178.86 140.472C179.467 139.668 180.088 138.874 180.718 138.095C183.585 134.568 186.729 131.31 189.897 128.077C190.285 127.68 190.683 127.293 191.08 126.902C191.114 126.871 191.158 126.922 191.129 126.952C188.107 130.261 185.128 133.611 182.305 137.118C181.635 137.953 180.976 138.792 180.325 139.648C180.665 139.403 181.009 139.169 181.349 138.935C182.222 138.334 183.11 137.749 184.017 137.214C184.929 136.68 185.846 136.156 186.782 135.667C187.748 135.168 188.776 134.761 189.703 134.191C189.741 134.165 189.775 134.237 189.737 134.257C188.776 134.669 187.883 135.295 186.996 135.85C186.084 136.42 185.167 136.99 184.269 137.591C183.387 138.177 182.499 138.757 181.621 139.357C180.888 139.856 180.17 140.401 179.413 140.859C177.682 143.216 176.052 145.654 174.601 148.21C173.684 149.818 172.86 151.472 172.113 153.157C172.292 153.076 172.472 152.994 172.651 152.913C173.107 152.699 173.568 152.485 174.024 152.272C174.907 151.859 175.795 151.457 176.682 151.055C178.366 150.286 180.078 149.579 181.727 148.739C182.654 148.266 183.566 147.767 184.425 147.166C184.463 147.141 184.493 147.202 184.459 147.232C181.378 149.462 177.929 151.03 174.519 152.613L173.039 153.3C172.632 153.488 172.224 153.697 171.807 153.865C170.803 156.227 169.954 158.66 169.265 161.169C167.897 166.173 166.854 171.289 165.995 176.415C165.132 181.561 164.555 186.743 164.099 191.946C164.04 192.597 163.987 193.244 163.914 193.89C163.885 194.15 163.521 194.15 163.521 193.88C163.55 191.238 163.807 188.591 164.069 185.964L164.099 185.975Z" fill="#263238"/>
<path d="M173.233 142.452C173.51 140.849 173.917 139.281 174.325 137.713C174.334 137.668 174.402 137.688 174.393 137.734C174.014 139.271 173.743 140.844 173.466 142.407C173.185 144 172.937 145.598 172.724 147.202C172.724 147.227 172.68 147.227 172.68 147.202C172.777 145.608 172.962 144.025 173.233 142.452Z" fill="#263238"/>
<path d="M179.709 146.8C180.728 146.041 181.868 145.471 182.974 144.87C183.522 144.575 184.075 144.29 184.629 144.01C185.201 143.72 185.793 143.476 186.36 143.18C186.399 143.16 186.433 143.221 186.394 143.247C185.846 143.537 185.322 143.888 184.784 144.193C184.226 144.514 183.673 144.835 183.115 145.15C182.019 145.771 180.937 146.453 179.782 146.957C179.68 147.003 179.612 146.871 179.7 146.805L179.709 146.8Z" fill="#263238"/>
<path opacity="0.1" d="M161.653 158.324C161.653 158.324 152.155 155.942 147.794 149.258C143.627 142.875 142.283 131.987 142.176 131.03C142.346 131.905 144.306 141.419 150.772 145.853C155.721 149.248 160.509 152.038 161.653 158.324Z" fill="#263238"/>
<path d="M152.883 141.104C154.551 142.794 155.808 144.779 156.385 147.156C156.39 147.176 156.361 147.186 156.356 147.166C155.643 144.952 154.464 142.773 152.839 141.16C152.805 141.129 152.853 141.073 152.887 141.104H152.883Z" fill="#263238"/>
<path d="M161.653 158.324C161.653 158.324 152.155 155.942 147.794 149.258C143.627 142.875 142.283 131.987 142.176 131.03C142.166 130.984 142.167 130.964 142.167 130.964C142.167 130.964 146.722 137.759 151.51 139.49C156.298 141.221 163.026 147.217 161.653 158.324Z" fill="#FFC727"/>
<path d="M143.845 134.71C144.728 136.522 145.649 138.324 146.78 139.978C147.881 141.592 149.21 142.967 150.685 144.198C151.975 145.272 153.338 146.25 154.643 147.303C154.634 147.288 154.624 147.268 154.614 147.253C154.367 146.871 154.105 146.499 153.838 146.138C153.295 145.41 152.698 144.723 152.101 144.041C150.923 142.697 149.715 141.378 148.657 139.923C148.07 139.118 147.556 138.258 147.134 137.347C147.115 137.306 147.182 137.281 147.202 137.321C148.744 140.691 151.82 142.844 154.013 145.69C154.323 146.097 154.619 146.514 154.891 146.947C155.08 147.258 155.313 147.599 155.439 147.96C156.632 148.988 157.738 150.108 158.68 151.396C158.602 150.739 158.466 150.088 158.296 149.462C158.059 148.571 157.753 147.731 157.287 146.937C157.263 146.896 157.321 146.855 157.345 146.896C157.792 147.685 158.194 148.53 158.452 149.406C158.66 150.118 158.762 150.826 158.796 151.559H158.801C159.276 152.231 159.693 152.938 160.086 153.661C160.048 153.447 160.009 153.234 159.97 153.025C159.781 152.032 159.572 151.04 159.33 150.062C158.83 148.077 158.16 146.153 157.045 144.448C157.02 144.407 157.079 144.366 157.103 144.407C158.204 146.087 159.034 147.965 159.635 149.9C159.936 150.877 160.179 151.875 160.392 152.877C160.494 153.366 160.591 153.86 160.678 154.354C160.727 154.608 160.775 154.868 160.819 155.132C161.789 157.286 162.473 159.597 163.012 161.887C163.982 166.015 164.583 170.266 165.039 174.491C165.515 178.924 165.762 183.409 165.694 187.873C165.685 188.433 165.655 188.993 165.626 189.553C165.617 189.696 165.413 189.716 165.408 189.568C165.316 187.359 165.262 185.145 165.136 182.936C165.01 180.721 164.831 178.517 164.603 176.313C164.161 171.991 163.521 167.675 162.623 163.43C161.852 159.785 160.853 156.12 158.956 152.923C158.005 151.325 156.865 149.905 155.531 148.647C154.197 147.395 152.742 146.296 151.34 145.13C149.943 143.974 148.599 142.717 147.493 141.251C146.3 139.668 145.358 137.891 144.471 136.105C144.248 135.652 144.015 135.204 143.792 134.756C143.772 134.715 143.83 134.674 143.85 134.715L143.845 134.71Z" fill="#263238"/>
<path d="M145.485 136.171C146.096 137.52 146.828 138.803 147.6 140.055C147.619 140.085 147.576 140.116 147.556 140.085C146.727 138.859 146.038 137.545 145.417 136.196C145.397 136.156 145.465 136.13 145.485 136.171Z" fill="#263238"/>
<path d="M196.509 153.916C196.509 153.916 196.659 168.077 188.587 172.17C180.514 176.262 176.187 172.852 170.706 174.221C170.706 174.221 170.71 174.221 170.715 174.216C170.929 173.88 174.844 167.975 181.068 166.351C187.471 164.677 194.568 159.821 196.509 153.921V153.916Z" fill="#FFC727"/>
<path opacity="0.1" d="M196.509 153.916C196.509 153.916 196.659 168.077 188.587 172.17C180.514 176.262 176.187 172.852 170.706 174.221C170.706 174.221 170.71 174.221 170.715 174.216C170.943 174.099 174.945 171.997 179.894 171.376C184.982 170.734 194.704 167.252 196.509 153.916Z" fill="black"/>
<path d="M170.172 174.476C171.133 173.564 172.214 172.781 173.383 172.195C173.558 172.109 173.733 172.037 173.912 171.961C174 171.849 174.087 171.742 174.184 171.635C174.426 171.371 174.679 171.116 174.946 170.877C175.455 170.419 175.993 170.001 176.571 169.65C177.91 168.825 179.375 168.25 180.738 167.482C180.777 167.461 180.81 167.522 180.772 167.548C180.097 167.914 179.442 168.321 178.783 168.724C178.142 169.116 177.487 169.487 176.867 169.91C176.309 170.286 175.77 170.709 175.271 171.167C175.13 171.299 174.994 171.437 174.858 171.584C175.746 171.264 176.663 171.019 177.585 170.826C179.064 170.51 180.558 170.291 182.033 169.961C182.756 169.798 183.474 169.594 184.172 169.355C184.842 168.79 185.511 168.225 186.147 167.614C186.913 166.871 187.617 166.066 188.233 165.186C188.257 165.15 188.32 165.186 188.291 165.227C187.296 166.575 186.229 167.935 184.982 169.06C185.332 168.922 185.676 168.774 186.016 168.612C188.757 167.303 191.197 165.227 192.895 162.61C192.919 162.569 192.982 162.61 192.953 162.651C191.473 164.896 189.601 166.815 187.389 168.255C186.278 168.978 185.109 169.569 183.872 170.001C182.45 170.5 180.975 170.795 179.506 171.085C178.065 171.371 176.619 171.656 175.227 172.154C173.941 172.613 172.729 173.279 171.642 174.135C169.566 175.769 167.96 178.003 166.805 180.426C165.277 183.643 164.55 187.237 164.142 190.78C164.123 190.933 163.9 190.933 163.909 190.775C164.288 184.819 165.806 178.624 170.177 174.491L170.172 174.476Z" fill="#263238"/>
<path d="M179.539 169.854C179.942 169.177 180.548 168.673 181.199 168.276C181.96 167.813 182.644 167.314 183.173 166.56C183.202 166.525 183.26 166.56 183.231 166.601C182.746 167.258 182.159 167.797 181.49 168.24C180.786 168.703 180.073 169.156 179.593 169.889C179.573 169.92 179.52 169.889 179.544 169.859L179.539 169.854Z" fill="#263238"/>
<path d="M175.256 184.926L174.892 192.714L173.767 216.511H156.831L155.706 192.714L155.342 184.926H175.256Z" fill="#37474F"/>
<path d="M175.256 184.926L174.994 190.485L155.638 191.223L155.342 184.926H175.256Z" fill="#263238"/>
<path d="M176.444 181.678H154.154V189.11H176.444V181.678Z" fill="#37474F"/>
<path d="M242.841 136.97L241.221 147.161L230.253 216.476H228.487L236.462 147.161L237.641 136.97H242.841Z" fill="#455A64"/>
<path opacity="0.1" d="M237.641 136.97H242.841L241.221 147.161H236.462L237.641 136.97Z" fill="black"/>
<path d="M277.289 216.476H275.518L264.55 147.161L262.93 136.97H268.135L269.314 147.161L277.289 216.476Z" fill="#455A64"/>
<path opacity="0.1" d="M268.135 136.97L269.314 147.161H264.55L262.93 136.97H268.135Z" fill="black"/>
<path d="M298.396 216.476H296.625L285.657 147.161L284.037 136.97H289.242L290.421 147.161L298.396 216.476Z" fill="#455A64"/>
<path opacity="0.1" d="M290.421 147.161H285.657L284.037 136.97H289.242L290.421 147.161Z" fill="black"/>
<path d="M295.592 141.755H227.007V132.872H257.099L267.208 71.1321H292.526L295.592 141.755Z" fill="#455A64"/>
<path opacity="0.1" d="M295.592 141.755H291.212L288.354 71.1321H292.526L295.592 141.755Z" fill="black"/>
<path d="M176.687 195.641C178.06 196.486 220.386 205.766 222.21 205.053C222.903 204.783 224.553 198.395 226.333 190.617C226.716 188.937 227.104 187.201 227.492 185.435C230.001 173.972 232.407 161.745 232.407 161.745L204.115 155.448L199.977 179.311L199.065 184.549C199.065 184.549 181.349 188.601 179.423 189.609C177.507 190.622 175.309 194.796 176.687 195.641Z" fill="#EB9481"/>
<path d="M225.649 193.585C224.14 199.963 222.816 204.819 222.21 205.053C220.386 205.771 178.06 196.481 176.687 195.636C175.314 194.791 177.512 190.622 179.423 189.604C180.611 188.983 187.81 187.201 193.151 185.929C188.485 187.099 179.782 190.418 197.784 191.783C212.667 192.918 222.491 193.432 225.649 193.579V193.585Z" fill="#263238"/>
<path d="M214.885 216.919C216.418 217.367 259.597 215.025 261.188 213.844C261.795 213.401 260.776 203.46 260.325 201.709C258.792 195.784 250.856 169.686 250.856 169.686L221.967 171.162L233.833 200.207C233.833 200.207 217.684 208.861 216.068 210.352C214.463 211.844 213.352 216.471 214.885 216.919Z" fill="#EB9481"/>
<path d="M261.188 213.844C259.597 215.03 216.422 217.367 214.88 216.924C213.347 216.471 214.453 211.849 216.063 210.357C216.82 209.66 220.72 207.42 224.679 205.216C219.716 208.148 211.857 214.684 260.742 203.027C261.188 208.214 261.518 213.605 261.193 213.839L261.188 213.844Z" fill="#263238"/>
<path d="M281.869 128.744C273.263 138.803 244.345 130.857 242.618 134.863C241.095 138.39 260.829 195.091 260.829 195.091L229.253 198.665C229.253 198.665 201.995 136.049 211.741 117.958C217.004 108.185 240.193 112.084 254.188 110.292C258.409 109.752 260.393 100.62 260.393 100.62H285.4C285.4 100.62 291.711 117.25 281.873 128.749L281.869 128.744Z" fill="#263238"/>
<path d="M220.517 112.348L247.033 133.641C255.838 133.448 275.111 136.644 281.869 128.744C291.707 117.245 285.4 100.62 285.4 100.62H260.393C260.393 100.62 258.409 109.752 254.188 110.292C244.365 111.544 230.025 110.002 220.517 112.348Z" fill="#37474F"/>
<path d="M228.046 191.269C228.919 190.984 237.103 190.027 238.912 189.818C242.526 189.411 253.907 188.291 255.968 188.296C256.022 188.296 256.032 188.388 255.978 188.398C254.188 188.79 246.926 189.68 245.121 189.874C241.502 190.266 229.069 191.528 228.065 191.426C227.978 191.416 227.963 191.294 228.05 191.264L228.046 191.269Z" fill="#37474F"/>
<path d="M238.791 131.539C240.823 130.48 256.211 131.004 267.252 129.92C270.852 129.569 274.461 128.76 277.207 126.286C279.681 124.056 281.272 120.971 282.121 117.79C283.183 113.83 283.072 109.701 282.892 105.644C282.848 104.647 282.781 103.649 282.722 102.651C282.722 102.595 282.819 102.58 282.824 102.641C283.663 109.905 284.309 118.019 279.802 124.316C277.823 127.085 275.038 128.948 271.754 129.854C265.093 131.692 240.052 131.238 239.169 131.946C238.116 132.791 254.305 184.504 254.625 185.491C254.683 185.674 254.377 185.802 254.3 185.618C252.704 181.648 237.02 132.455 238.786 131.534L238.791 131.539Z" fill="#37474F"/>
<path d="M210.606 119.704C212.095 115.739 215.491 113.27 220.487 112.323C220.57 112.308 220.565 112.435 220.487 112.46C216.126 113.799 213.012 115.637 211.299 119.5C210.499 121.302 210.087 123.837 209.878 127.233C208.845 144.163 222.923 182.6 223.209 183.272C223.233 183.333 223.156 183.379 223.122 183.323C221.138 179.815 204.464 136.08 210.611 119.709L210.606 119.704Z" fill="#37474F"/>
<path d="M199.191 177.789L223.102 183.124C223.102 183.124 204.241 124.051 213.099 116.431C215.554 114.318 220.91 113.58 227.269 116.461C236.768 120.768 247.765 129.543 258.132 132.755C267.839 135.764 279.365 132.995 283.334 128.413C291.668 118.788 285.4 100.6 285.4 100.6L256.182 100.31C256.182 100.31 256.696 100.748 255.057 102.275C255.057 102.275 229.68 98.7929 220.9 104.423C205.061 114.578 199.201 177.784 199.201 177.784L199.191 177.789Z" fill="#263238"/>
<path d="M270.541 102.718C270.565 102.646 270.658 102.667 270.663 102.738C270.711 104.102 270.653 105.441 270.958 106.785C271.249 108.063 271.803 109.208 272.69 110.144C274.577 112.145 277.279 112.827 279.749 113.641C279.88 113.682 279.855 113.927 279.71 113.901C276.969 113.458 274.083 112.73 272.079 110.572C271.157 109.579 270.541 108.312 270.304 106.953C270.066 105.589 270.105 104.036 270.536 102.718H270.541Z" fill="#37474F"/>
<path d="M213.686 115.306C217.363 112.883 223.107 114.726 225.858 115.83C225.916 115.856 225.887 115.953 225.829 115.927C223.296 114.97 217 113.524 213.633 116.029C205.852 121.811 216.267 161.363 223.093 183.129C223.199 183.47 222.942 183.379 222.797 183.053C221.671 180.472 212.871 152.969 210.572 134.771C210.218 131.972 208.379 118.798 213.677 115.306H213.686Z" fill="#37474F"/>
<path d="M201.917 171.121C202.64 171.101 208.835 172.536 210.203 172.857C212.934 173.504 219.26 175.224 220.74 175.815C220.778 175.83 220.754 175.916 220.711 175.911C219.294 175.769 215.995 175.01 214.632 174.679C211.906 174.013 202.558 171.661 201.874 171.279C201.816 171.243 201.845 171.126 201.917 171.121Z" fill="#37474F"/>
<path d="M214.86 114.278C217.334 112.858 220.279 112.628 223.025 112.98C225.935 113.356 228.705 114.441 231.368 115.718C236.962 118.401 242.288 121.679 247.891 124.351C253.46 127.004 259.403 129.08 265.54 129.279C270.784 129.447 277.425 128.48 280.796 123.527C285.992 115.896 282.965 102.748 282.907 101.898C282.907 101.832 282.984 101.837 283.004 101.898C287.035 118.065 281.849 124.341 278.347 126.983C275.567 129.08 271.574 129.61 268.935 129.844C262.833 130.383 256.711 128.816 251.054 126.454C245.257 124.031 239.819 120.768 234.26 117.785C228.933 114.924 222.995 111.977 216.912 113.616C216.223 113.799 215.544 114.054 214.889 114.344C214.855 114.359 214.836 114.298 214.865 114.283L214.86 114.278Z" fill="#37474F"/>
<path d="M275.494 78.6912L273.282 78.5893C273.219 77.9378 273.078 77.3117 272.86 76.7568C271.977 74.4764 270.206 72.6591 268.824 70.8215C268.824 70.8114 268.809 70.8215 268.814 70.8368C270.1 72.6337 271.322 74.8632 272.006 77.1182C272.152 77.5967 272.229 78.0752 272.263 78.5435L270.885 78.4824C270.808 77.0572 270.478 75.6879 269.794 74.4458C269.775 74.4102 269.721 74.456 269.736 74.4967C270.289 75.7439 270.415 77.0877 270.386 78.4621L258.418 77.9174C258.234 76.767 258.122 75.5861 258.117 74.3797C258.117 74.2422 257.938 74.2626 257.943 74.3949C257.943 75.581 257.986 76.7517 258.113 77.9072L257.113 77.8563C256.987 75.8813 257.026 73.9113 257.385 71.7785C257.399 71.7123 257.307 71.692 257.298 71.7581C256.89 73.7128 256.609 75.7897 256.604 77.8309L248.318 77.4593C248.842 76.1765 249.22 74.8022 249.531 73.4838C249.56 73.3718 249.41 73.3361 249.381 73.4481C249.007 74.909 248.454 76.1867 247.838 77.4288L246.611 77.3778C247.586 75.1228 248.323 72.7711 248.522 70.3176C248.527 70.2158 248.386 70.2056 248.372 70.3074C248.037 72.9544 246.8 75.1432 245.577 77.3219L242.458 77.1844C243.569 75.1432 245.471 73.2903 245.766 70.8826C246.087 68.1797 243.807 66.8867 243.142 64.6114C242.026 60.7987 243.85 57.9736 246.125 55.3673C248.216 52.9596 248.032 50.2007 248.575 47.1312C248.968 44.8711 249.594 42.3667 250.724 40.4018C254.198 34.3291 260.271 35.1893 260.276 35.2759C261.746 35.3166 263.075 35.7595 264.239 36.5688C264.244 36.5688 264.254 36.5688 264.259 36.579C264.341 36.6299 264.414 36.691 264.497 36.7572C265.748 37.6989 266.806 39.0783 267.63 40.8549L267.64 40.8752C267.878 41.3792 268.091 41.9187 268.29 42.4889C268.63 43.4866 268.688 44.866 268.964 46.4542C268.964 46.4847 268.969 46.5204 268.979 46.5458C269.386 48.7805 270.255 51.3816 273.01 53.7283C276.294 56.5076 275.353 60.982 272.637 65.4614C271.487 67.3601 271.439 68.5869 271.88 69.6355C271.88 69.6355 271.88 69.6406 271.88 69.6508C271.943 69.7933 272.006 69.9155 272.079 70.0529C272.719 71.2084 273.883 72.2163 274.679 73.7994C275.416 75.2552 275.576 76.9604 275.504 78.6759L275.494 78.6912Z" fill="#263238"/>
<path d="M255.207 36.1973C252.694 37.592 250.758 39.9336 249.827 42.9928C249.114 45.3293 249.036 47.8694 248.095 50.1295C247.207 52.2623 245.645 53.8708 244.394 55.7135C242.735 58.1467 241.677 61.1347 243.045 63.9242C243.894 65.6549 245.776 67.3754 245.679 69.5744C245.563 72.145 243.438 74.6189 242.298 76.7416C242.245 76.8434 242.381 76.9554 242.444 76.8587C243.996 74.4611 246.708 71.3102 245.791 68.1593C245.369 66.7137 244.457 65.6142 243.734 64.3874C242.327 62.0001 242.623 59.4447 244.006 57.0014C245.878 53.6876 248.362 51.5598 249.191 47.5741C249.667 45.2937 249.871 42.9521 250.967 40.8854C252.005 38.9257 253.499 37.3884 255.27 36.3602C255.343 36.3143 255.284 36.1667 255.207 36.2125V36.1973Z" fill="#263238"/>
<path d="M273.699 73.1885C272.797 71.8396 271.681 70.852 272.171 68.8057C272.511 67.3855 273.428 66.169 274.058 64.9066C275.63 61.7607 276.527 57.8056 274.99 54.5783C274.121 52.7611 272.642 52.3182 271.39 50.9896C269.877 49.3811 269.319 46.8919 268.829 44.6013C268.096 41.1653 267.17 37.256 263.861 36.4772C263.832 36.4721 263.822 36.523 263.852 36.5332C268.067 37.8159 268.043 43.624 269.256 47.6402C269.668 49.0044 270.255 50.3177 271.167 51.2849C272.613 52.8222 274.364 53.3312 275.111 55.7185C275.81 57.9532 275.509 60.4373 274.733 62.6821C274.058 64.6317 272.812 66.2606 272.171 68.2C271.788 69.3606 271.696 70.5619 272.229 71.6156C272.651 72.4402 273.365 72.99 273.811 73.7892C274.412 74.8632 274.645 76.1154 274.611 77.4236C274.611 77.556 274.781 77.5356 274.786 77.4033C274.844 75.8151 274.519 74.4 273.699 73.1834V73.1885Z" fill="#263238"/>
<path d="M263.939 65.2121C262.513 71.4274 253.388 98.2635 240.105 100.615C235.599 101.414 227.91 84.7283 232.441 64.1991C232.576 63.5934 245.766 63.7461 246.407 67.1311C246.475 67.4925 246.174 76.8994 245.8 76.7467C245.34 76.5533 251.471 69.6457 259.214 63.0029C262.876 59.8622 264.788 61.5063 263.939 65.2172V65.2121Z" fill="#EB9481"/>
<path d="M263.939 65.2121C262.513 71.4274 253.388 98.2635 240.105 100.615C235.599 101.414 227.987 85.9958 231.058 67.7674L247.004 70.1395C247.071 70.5009 246.538 75.4436 246.538 75.4436C246.538 75.4436 251.471 69.6457 259.214 63.0029C262.876 59.8622 264.788 61.5063 263.939 65.2172V65.2121Z" fill="#FFC727"/>
<path d="M246.519 75.4895C246.232 80.2998 245.849 85.1051 245.349 89.8951C245.209 91.2287 245.083 92.5675 244.947 93.9011C244.947 93.947 245.015 93.952 245.024 93.9113C245.519 91.5545 245.878 89.1722 246.135 86.7747C246.388 84.4026 246.596 81.9949 246.625 79.6075C246.645 78.2332 246.64 76.8588 246.606 75.4895C246.606 75.4284 246.523 75.4335 246.519 75.4895Z" fill="#263238"/>
<path d="M232.014 66.8511C232.014 66.8511 232.606 60.2541 235.114 55.9986C236.845 53.0564 239.164 48.4496 249.002 48.6634C251.336 48.7143 255.862 51.4936 254.862 53.2142C253.912 54.8533 250.002 51.7533 246.737 52.3234C246.737 52.3234 250.618 54.9551 250.482 57.4035C250.419 58.4979 250.181 61.4859 249.681 63.7817C249.681 63.7817 249.177 63.802 248.532 63.7308C248.532 63.7308 248.333 66.0214 245.747 68.2357L232.014 66.846V66.8511Z" fill="#EB9481"/>
<path d="M237.195 53.4688C238.844 52.9343 242.361 51.8602 245.529 52.0333C249.046 52.2267 255.774 53.5909 255.614 56.3143C255.498 58.3097 252.883 58.0297 252.883 58.0297C252.883 58.0297 255.551 59.2106 255.066 60.9872C254.625 62.611 252.616 62.2597 252.616 62.2597C252.616 62.2597 254.115 63.2676 253.407 64.7438C252.553 66.5203 248.58 63.6952 246.232 64.7082C245.703 64.9372 237.195 53.4688 237.195 53.4688Z" fill="#EB9481"/>
<path d="M244.714 55.9019C246.344 55.6678 250.181 56.1259 252.849 57.9584C252.907 57.9991 252.912 58.0704 252.849 58.0449C249.502 56.6807 246.15 56.0953 244.714 55.9375C244.695 55.9375 244.699 55.907 244.714 55.9019Z" fill="#263238"/>
<path d="M245.262 51.7481C246.892 51.514 250.729 51.9721 253.397 53.8046C253.456 53.8453 253.46 53.9166 253.397 53.8911C250.05 52.5269 246.698 51.9415 245.262 51.7837C245.243 51.7837 245.248 51.7532 245.262 51.7481Z" fill="#263238"/>
<path d="M244.631 59.6331C246.058 59.5822 249.992 60.2439 252.636 62.1986C252.694 62.2444 252.694 62.3106 252.636 62.2851C249.196 60.7122 246.058 59.9181 244.631 59.6687C244.612 59.6687 244.617 59.6331 244.631 59.6331Z" fill="#263238"/>
<path d="M248.493 64.5199C248.25 64.3315 246.242 63.8938 244.384 64.5402C244.34 64.5555 244.35 64.6268 244.399 64.6268C245.558 64.5606 246.518 64.5555 246.538 64.5555C245.621 66.724 243.36 68.1798 242.366 68.699C242.303 68.7296 242.351 68.8314 242.414 68.811C244.355 68.2561 246.242 66.6731 246.688 64.5606C246.95 64.5759 248.318 64.6318 248.478 64.5759C248.503 64.5657 248.512 64.53 248.493 64.5148V64.5199Z" fill="#263238"/>
<path opacity="0.1" d="M263.939 65.2121C262.512 71.4274 253.388 98.2635 240.105 100.615C239.382 100.743 238.577 100.452 237.748 99.7957L263.216 61.5115C264.084 61.9645 264.37 63.3185 263.939 65.2121Z" fill="black"/>
<path d="M252.384 102.947L253.402 89.956C253.402 89.956 249.72 85.7871 251.743 80.5746C252.767 77.9327 257.584 66.734 261.45 62.1884C264.696 58.3707 269.615 60.8649 271.57 63.3897C277.182 70.6383 280.142 79.5922 286.598 101.465L252.384 102.952V102.947Z" fill="#FFC727"/>
<path d="M262.474 87.6195C261.082 87.7468 259.675 87.9504 258.292 88.4034C257.603 88.6274 256.924 88.9023 256.245 89.2026C255.905 89.3502 255.566 89.4825 255.226 89.6098C254.877 89.7421 254.503 89.8592 254.144 89.8541C254.111 89.8541 254.106 89.9305 254.14 89.9356C254.484 89.9763 254.814 90.0119 255.158 89.9763C255.488 89.9458 255.823 89.8541 256.148 89.7523C256.847 89.5335 257.54 89.2637 258.239 89.0346C259.646 88.5714 261.052 88.1082 262.474 87.8027C262.537 87.7875 262.537 87.6144 262.474 87.6195Z" fill="#263238"/>
<path d="M265.744 89.8185C264.623 89.5538 263.478 89.3706 262.338 89.3095C261.766 89.2789 261.193 89.3044 260.616 89.3502C260.339 89.3706 260.068 89.4011 259.791 89.4418C259.49 89.4825 259.185 89.5844 258.884 89.62C258.855 89.62 258.845 89.7014 258.879 89.7014C259.165 89.6862 259.452 89.7422 259.733 89.7523C260.019 89.7625 260.305 89.7676 260.592 89.7778C261.164 89.7981 261.736 89.8236 262.309 89.8338C263.454 89.8541 264.599 89.8898 265.739 89.9763C265.802 89.9763 265.807 89.8389 265.748 89.8236L265.744 89.8185Z" fill="#263238"/>
<path d="M272.967 66.7595C279.074 80.3863 283.493 105.548 279.816 109.035C275.722 112.918 267.247 93.8501 267.577 93.0408C267.824 92.4299 267.902 78.3145 267.528 67.6147C267.155 56.925 271.458 63.3897 272.971 66.7595H272.967Z" fill="#DD6A57"/>
<path d="M267.48 93.0254C267.538 91.4932 267.32 72.6438 267.32 66.5863C267.32 61.1499 268.838 59.4802 271.662 63.8935C276.857 72.0177 282.926 93.6261 282.577 103.333C282.237 112.679 277.168 110.847 273.02 104.947C269.624 100.116 267.485 93.0254 267.485 93.0254H267.48Z" fill="#FFC727"/>
<path d="M267.548 95.5247C267.048 88.3066 266.883 81.0275 267.043 73.7891C267.543 81.0071 267.708 88.2914 267.548 95.5247Z" fill="#263238"/>
<path d="M267.073 77.9988C266.689 77.1233 266.442 76.1816 266.442 75.2195C266.772 76.1205 267.009 77.0316 267.073 77.9988Z" fill="#263238"/>
<path d="M278.783 108.856C275.203 110.628 269.537 107.976 254.673 102.702C252.616 101.974 253.62 85.3543 255.852 86.0161C258.666 86.8509 269.42 90.7195 270.172 91.1064C276.518 94.3744 281.214 107.655 278.783 108.856Z" fill="#EB9481"/>
<path d="M258.302 86.744C258.302 86.744 253.3 84.1479 250.065 83.1044C245.733 81.7045 241.444 82.3714 239.659 82.7582C235.938 83.5778 227.488 88.2507 228.346 91.0402C229.122 93.565 237.534 88.3271 237.534 88.3271C237.534 88.3271 228.118 92.1804 229.588 95.0412C231.058 97.9019 240.489 91.2387 240.489 91.2387C240.489 91.2387 230.898 95.428 232.858 98.1259C234.337 100.167 243.205 94.6339 243.205 94.6339C243.205 94.6339 234.987 98.2939 236.423 100.462C238.01 102.855 246.499 98.2888 246.499 98.2888C251.035 103.15 255.066 103.985 257.982 103.888L261.033 104.993L259.369 87.1766L258.297 86.744H258.302Z" fill="#EB9481"/>
<path d="M240.712 86.7796C239.591 87.1919 238.451 87.5992 237.369 88.1133C236.288 88.6274 235.22 89.1823 234.187 89.7982C231.655 91.3151 230.297 92.6793 230.389 92.603C232.581 90.8366 236.433 88.9328 237.515 88.4187C238.597 87.9046 239.649 87.3345 240.731 86.8204C240.76 86.8051 240.736 86.7695 240.712 86.7796Z" fill="#263238"/>
<path d="M242.555 90.8467C241.144 91.4372 239.722 91.9666 238.34 92.6232C236.962 93.2748 235.705 94.0231 234.371 94.7713C234.27 94.8273 234.333 94.8681 234.439 94.8121C235.798 94.1198 237.107 93.5853 238.475 92.9083C239.839 92.2364 241.187 91.4983 242.57 90.8773C242.589 90.8671 242.575 90.8365 242.555 90.8416V90.8467Z" fill="#263238"/>
<path d="M244.733 94.0435C242.536 94.8274 240.474 96.0389 238.485 97.2759C238.388 97.3369 238.476 97.3777 238.577 97.3217C240.634 96.2069 242.245 95.3161 244.763 94.125C244.801 94.1046 244.782 94.0282 244.738 94.0435H244.733Z" fill="#263238"/>
<path d="M259.422 84.6926L261.993 108.688C261.993 108.688 277.536 111.753 280.51 109.416C282.635 107.747 277.512 94.7205 270.662 90.7399L259.427 84.6926H259.422Z" fill="#FFC727"/>
<path d="M277.148 98.4416C276.692 96.8941 274.587 93.0866 270.662 90.7247C270.628 90.7043 270.59 90.7552 270.623 90.7807C273.384 92.8371 276.537 97.0163 277.095 98.467C277.109 98.5027 277.163 98.4772 277.153 98.4416H277.148Z" fill="#263238"/>
<path d="M266.316 106.428C266.199 104.097 265.962 101.776 265.724 99.4546C265.481 97.1334 265.244 94.8071 264.948 92.491C264.778 91.1828 264.618 89.8746 264.409 88.5715C264.404 88.5359 264.346 88.5409 264.351 88.5715C264.468 90.8978 264.696 93.224 264.919 95.5401C265.147 97.8664 265.394 100.188 265.666 102.509C265.821 103.817 265.996 105.125 266.204 106.428C266.214 106.494 266.321 106.489 266.316 106.423V106.428Z" fill="#263238"/>
<path d="M259.277 84.3465C260.097 84.6366 269.047 89.3299 271.55 91.3151C271.579 91.3355 271.337 91.366 271.308 91.3405C270.163 90.3276 260.315 85.3543 259.573 84.8504C259.568 84.9217 259.733 87.1614 259.718 87.2327C259.709 87.2785 259.641 87.2988 259.621 87.2428C259.578 87.1105 259.17 84.3006 259.277 84.3363V84.3465Z" fill="#263238"/>
<path d="M261.993 108.688C266.956 109.605 272.006 110.485 277.056 110.149C281.194 109.834 281.883 108.291 282.218 104.204C282.572 95.7437 280.694 87.2683 278.516 79.1594C279.865 83.1757 280.888 87.309 281.655 91.4983C282.3 95.4281 284.512 108.169 280.117 109.925C278.162 110.714 276.066 110.689 274.019 110.618C269.949 110.394 265.932 109.666 261.989 108.693L261.993 108.688Z" fill="#263238"/>
<path d="M267.834 61.5163C267.868 62.2443 263.269 67.6196 260.266 68.3628C259.287 68.6021 260.504 63.0282 260.504 63.0282L260.305 62.6464L257.521 57.2812L262.765 51.0354L263.536 50.1853C263.536 50.1853 264.206 51.7073 265.021 53.6111C265.059 53.6976 265.098 53.7892 265.137 53.8809C265.186 53.9878 265.234 54.0896 265.273 54.1863C265.399 54.4713 265.525 54.7564 265.646 55.0466C265.739 55.2654 265.831 55.4843 265.918 55.7185C266.015 55.9526 266.102 56.1817 266.195 56.4158C267.087 58.7421 267.815 61.216 267.834 61.5214V61.5163Z" fill="#EB9481"/>
<path d="M265.021 53.606C264.7 58.6403 261.732 61.5418 260.305 62.6464L257.521 57.2812L262.765 51.0354L263.536 50.1853C263.536 50.1853 264.206 51.7073 265.021 53.6111V53.606Z" fill="#263238"/>
<path d="M247.464 49.0453C247.746 59.7655 253.897 60.7988 256.099 60.7326C258.098 60.6715 264.904 60.2032 265.68 49.5085C266.456 38.8137 261.62 35.561 257.036 35.4439C252.456 35.3269 247.183 38.32 247.464 49.0402V49.0453Z" fill="#EB9481"/>
<path d="M248.488 47.2838C248.726 47.2431 248.939 47.1616 249.172 47.0955C249.434 47.0191 249.647 46.9886 249.832 46.7646C249.929 46.6424 249.909 46.4134 249.808 46.3014C249.57 46.0418 249.225 46.052 248.91 46.1283C248.566 46.2098 248.318 46.3676 248.105 46.6628C247.896 46.9479 248.173 47.3449 248.488 47.2889V47.2838Z" fill="#263238"/>
<path d="M255.508 47.2074C255.265 47.1921 255.047 47.131 254.809 47.0903C254.542 47.0445 254.324 47.0343 254.12 46.8307C254.009 46.7187 254.009 46.4896 254.101 46.3675C254.314 46.0824 254.654 46.057 254.979 46.1028C255.328 46.1486 255.59 46.2809 255.833 46.5507C256.07 46.8103 255.828 47.2379 255.508 47.2125V47.2074Z" fill="#263238"/>
<path d="M254.014 49.5135C254.014 49.4829 254.067 49.544 254.067 49.5745C254.067 50.3025 254.174 51.1424 254.809 51.3663C254.829 51.3714 254.829 51.4121 254.804 51.407C254.033 51.3154 253.892 50.2006 254.009 49.5084L254.014 49.5135Z" fill="#263238"/>
<path d="M254.615 48.7346C255.731 48.6124 255.877 50.9692 254.843 51.0761C253.825 51.183 253.679 48.8313 254.615 48.7346Z" fill="#263238"/>
<path d="M255.061 48.8313C255.265 48.9534 255.474 49.1723 255.711 49.1825C255.988 49.1927 256.177 48.9331 256.342 48.6836C256.361 48.6582 256.381 48.6786 256.381 48.7091C256.415 49.157 256.279 49.6355 255.823 49.7323C255.406 49.8239 255.081 49.4421 254.945 48.9992C254.921 48.9178 254.984 48.7855 255.061 48.8364V48.8313Z" fill="#263238"/>
<path d="M250.142 49.6254C250.138 49.5999 250.089 49.6661 250.094 49.6915C250.167 50.4194 250.133 51.2644 249.521 51.5546C249.502 51.5648 249.507 51.6004 249.531 51.5953C250.288 51.4222 250.322 50.3024 250.142 49.6254Z" fill="#263238"/>
<path d="M249.468 48.9126C248.347 48.9126 248.42 51.2643 249.463 51.2694C250.487 51.2694 250.409 48.9177 249.468 48.9126Z" fill="#263238"/>
<path d="M249.007 49.0857C248.832 49.218 248.668 49.4522 248.454 49.4725C248.207 49.498 248.018 49.2486 247.853 49.0093C247.833 48.9839 247.819 49.0093 247.819 49.0348C247.819 49.4878 247.979 49.951 248.391 50.0223C248.769 50.0885 249.031 49.6914 249.124 49.2384C249.138 49.1569 249.075 49.0297 249.007 49.0806V49.0857Z" fill="#263238"/>
<path d="M255.027 55.1433C254.906 55.352 254.799 55.6218 254.562 55.7083C254.334 55.7898 254.028 55.7542 253.795 55.7236C253.771 55.7236 253.756 55.7491 253.776 55.7694C254.018 55.9934 254.426 56.0647 254.727 55.9221C255.018 55.7847 255.1 55.4691 255.105 55.1535C255.105 55.1077 255.052 55.1077 255.032 55.1382L255.027 55.1433Z" fill="#263238"/>
<path d="M251.69 53.1377C251.69 53.1377 251.748 54.2372 251.84 54.7412C251.85 54.787 251.971 54.787 252.136 54.7615C252.146 54.7615 252.151 54.7615 252.156 54.7615C253.034 54.7259 253.829 54.2423 254.212 53.4075C254.237 53.3515 254.164 53.3108 254.13 53.3515C253.587 53.9725 252.907 54.2423 252.16 54.4103C252.102 54.278 252.122 52.5218 252.044 52.532C251.777 52.5625 251.292 52.8578 251.001 53.0156C250.817 50.73 250.982 48.4292 250.763 46.1589C250.754 46.0775 250.642 46.0775 250.632 46.1538C250.298 48.5513 250.453 51.1881 250.589 53.55C250.603 53.8453 251.525 53.265 251.7 53.1377H251.69Z" fill="#263238"/>
<path d="M265.545 50.8981C263.168 50.0989 262.76 47.6504 262.76 47.6504C259.82 46.7851 258.03 44.7184 257.846 44.5046C257.943 44.7133 258.627 46.2302 259.005 46.9938C252.413 46.6171 249.779 41.7253 249.779 41.7253C247.964 44.1941 247.722 45.6499 247.508 46.388C247.508 46.388 246.946 42.2547 248.629 39.2005C250.691 35.4642 254.159 35.6424 254.159 35.6424C254.159 35.6424 258.962 33.3925 263.396 37.2917C268.169 41.4963 265.545 50.8981 265.545 50.8981Z" fill="#263238"/>
<path d="M253.975 46.5459C255.076 47.0091 256.264 47.2636 257.434 47.3654C257.443 47.3654 257.443 47.3502 257.434 47.3502C255.551 47.06 253.8 46.2863 252.34 45.0035C251.719 44.4589 251.171 43.843 250.695 43.1608C250.201 42.4431 249.701 41.5778 249.521 40.7022C249.507 40.6361 249.41 40.6564 249.424 40.7226C249.614 41.6439 249.798 42.494 250.268 43.3136C250.71 44.0924 251.297 44.7948 251.976 45.3497C252.582 45.8485 253.262 46.2405 253.98 46.5459" fill="#263238"/>
<path d="M264.681 53.6417C264.521 53.7283 264.371 53.7894 264.225 53.825C264.055 53.881 263.895 53.8963 263.75 53.8963C263.517 53.8963 263.313 53.8504 263.143 53.769C262.983 53.7028 262.842 53.6061 262.726 53.5043C262.425 53.2447 262.275 52.9545 262.275 52.9545L262.527 50.0429C262.527 50.0429 264.385 46.4491 265.908 47.1109C267.441 47.7675 266.301 52.7866 264.686 53.6519L264.681 53.6417Z" fill="#EB9481"/>
<path d="M265.544 48.531C265.574 48.5259 265.583 48.5666 265.559 48.5768C264.429 49.2232 263.934 50.45 263.628 51.6971C263.929 51.1932 264.38 50.8878 265.016 51.2543C265.05 51.2746 265.025 51.3255 264.991 51.3255C264.497 51.2746 264.152 51.407 263.871 51.8498C263.672 52.1654 263.551 52.5523 263.42 52.9035C263.376 53.0206 263.177 52.985 263.206 52.8526C263.206 52.8425 263.206 52.8323 263.211 52.8221C263.007 51.2441 263.939 48.8822 265.544 48.531Z" fill="#263238"/>
<path d="M264.492 53.209C264.468 53.4839 264.24 53.6875 263.978 53.662C263.716 53.6366 263.522 53.3973 263.546 53.1224C263.57 52.8476 263.798 52.649 264.06 52.6694C264.322 52.6949 264.516 52.9341 264.492 53.209Z" fill="white"/>
<path d="M265.375 52.3487C265.36 52.5421 265.195 52.6847 265.011 52.6694C264.826 52.6541 264.691 52.4811 264.705 52.2876C264.72 52.0942 264.885 51.9517 265.069 51.9669C265.253 51.9822 265.389 52.1553 265.375 52.3487Z" fill="white"/>
<path d="M247.45 48.3835C247.562 52.8885 249.051 58.1315 253.296 60.0709C253.868 60.3712 254.484 60.5443 255.1 60.7326C249.478 60.0709 246.96 53.6978 247.45 48.3835Z" fill="#263238"/>
<path d="M60.1587 136.97L61.779 147.161L72.7473 216.476H74.518L66.5379 147.161L65.3591 136.97H60.1587Z" fill="#455A64"/>
<path opacity="0.1" d="M65.3591 136.97H60.1587L61.779 147.161H66.5379L65.3591 136.97Z" fill="black"/>
<path d="M25.7109 216.476H27.4816L38.4499 147.161L40.0702 136.97H34.8698L33.691 147.161L25.7109 216.476Z" fill="#455A64"/>
<path opacity="0.1" d="M34.8697 136.97L33.6909 147.161H38.4499L40.0701 136.97H34.8697Z" fill="black"/>
<path d="M4.60376 216.476H6.37441L17.3428 147.161L18.963 136.97H13.7626L12.5838 147.161L4.60376 216.476Z" fill="#455A64"/>
<path opacity="0.1" d="M12.5837 147.161H17.3427L18.9629 136.97H13.7626L12.5837 147.161Z" fill="black"/>
<path d="M7.4126 141.755H75.9927V132.872H45.9061L35.7916 71.1321H10.4736L7.4126 141.755Z" fill="#455A64"/>
<path opacity="0.1" d="M7.4126 141.755H11.7931L14.6456 71.1321H10.4736L7.4126 141.755Z" fill="black"/>
<path d="M86.5581 215.895C85.0251 216.099 42.9175 206.952 41.5592 205.567C41.3943 205.414 42.1026 201.403 43.1552 195.926L43.1747 195.819C43.8296 192.348 55.2199 164.086 55.2199 164.086L82.5462 171.172L70.9666 197.428C70.9666 197.428 76.1767 201.133 80.6543 204.666C80.6543 204.671 80.664 204.676 80.664 204.681C83.4291 206.85 85.8159 208.799 86.3252 209.441C87.6544 211.11 88.0813 215.712 86.5532 215.9L86.5581 215.895Z" fill="#AD6359"/>
<path d="M86.5582 215.89C85.0301 216.094 42.9225 206.947 41.5593 205.567C41.3944 205.409 42.1075 201.403 43.1602 195.921L43.1796 195.819C43.4222 194.526 45.1637 189.782 47.2448 184.341C51.7418 185.46 67.8572 189.492 73.7173 191.197L70.9764 197.418C70.9764 197.418 76.1865 201.123 80.6641 204.656C80.6641 204.661 80.6689 204.661 80.6689 204.666C83.4341 206.835 85.8208 208.789 86.3302 209.426C87.6594 211.1 88.0911 215.702 86.5582 215.885V215.89Z" fill="#EBEBEB"/>
<path d="M86.7036 216.099C85.127 216.292 42.9903 207.028 41.5932 205.608C41.0596 205.073 41.7921 198.115 43.8732 190.703L71.0346 196.71C71.0346 196.71 85.1319 207.72 86.4999 209.451C87.863 211.177 88.2754 215.905 86.7036 216.099Z" fill="#FFC727"/>
<path d="M86.4513 214.195C79.422 212.459 50.9218 206.158 43.8489 205.002C43.7906 204.992 43.7809 205.033 43.8392 205.048C50.7665 206.926 79.3153 212.989 86.427 214.317C86.5774 214.348 86.6017 214.231 86.4513 214.195Z" fill="#263238"/>
<path d="M73.101 197.942C70.2825 197.28 66.7945 197.606 64.5533 199.647C64.466 199.729 64.5727 199.856 64.6698 199.825C67.5028 199.006 70.137 198.507 73.0767 198.319C73.2853 198.303 73.3047 197.988 73.101 197.942Z" fill="#263238"/>
<path d="M75.1046 199.311C72.2862 198.65 68.7982 198.975 66.557 201.017C66.4697 201.098 66.5764 201.225 66.6734 201.195C69.5065 200.375 72.1406 199.876 75.0804 199.688C75.289 199.673 75.3084 199.357 75.1046 199.311Z" fill="#263238"/>
<path d="M77.1081 200.686C74.2896 200.024 70.8016 200.35 68.5604 202.391C68.4731 202.472 68.5798 202.599 68.6768 202.569C71.5099 201.749 74.144 201.251 77.0838 201.062C77.2924 201.047 77.3118 200.731 77.1081 200.686Z" fill="#263238"/>
<path d="M79.1164 202.06C76.2979 201.398 72.8099 201.724 70.5687 203.765C70.4814 203.847 70.5881 203.974 70.6851 203.943C73.5182 203.124 76.1523 202.625 79.0921 202.437C79.3007 202.421 79.3201 202.106 79.1164 202.06Z" fill="#263238"/>
<path opacity="0.1" d="M86.7036 216.099C86.2136 216.155 81.7846 215.305 75.8711 214.047L79.6744 203.577C82.8858 206.178 85.9032 208.698 86.5047 209.456C87.863 211.177 88.2802 215.905 86.7036 216.104V216.099Z" fill="black"/>
<path d="M72.0581 198.125L43.0534 190.937C43.0534 190.937 67.4059 134.679 65.2811 131.717C64.2187 130.235 37.2126 129.798 28.6213 122.152C17.4638 112.221 24.949 97.0416 24.949 97.0416L55.1084 96.0999C55.1084 96.0999 54.7445 102.717 55.9233 103.715C56.6995 104.382 92.6365 107.553 96.5805 120.279C101.422 135.881 72.0581 198.12 72.0581 198.12V198.125Z" fill="#263238"/>
<path d="M70.4378 129.095C69.8314 128.551 68.9194 128.484 68.1626 128.352C63.8111 127.588 59.4549 126.815 55.1034 126.051C51.0285 125.333 46.9342 124.697 42.8786 123.873C39.5217 123.19 36.1065 122.274 33.2007 120.36C30.2949 118.446 28.2817 115.57 27.2678 112.211C26.2539 108.851 26.1811 105.242 26.5013 101.765C26.5789 100.915 26.7293 100.065 26.8797 99.2253C26.8894 99.1591 26.7924 99.1387 26.7827 99.2049C25.6766 105.695 25.5796 113.229 30.2124 118.4C32.4682 120.92 35.5729 122.401 38.7358 123.364C42.3062 124.448 46.0416 124.957 49.7041 125.603C54.0556 126.367 58.4119 127.135 62.7682 127.894C64.8638 128.26 66.9886 128.545 69.0698 129.004C69.4675 129.09 69.9187 129.212 70.2049 129.528C70.5978 129.966 70.4911 130.587 70.3893 131.111C70.1807 132.19 69.9041 133.254 69.6082 134.308C67.2312 142.829 50.1407 182.798 49.6702 183.735C49.6217 183.831 49.7672 183.908 49.8206 183.811C53.813 176.338 66.489 145.623 69.1231 137.56C69.7974 135.504 70.4184 133.417 70.8356 131.289C70.9859 130.521 71.0733 129.655 70.4378 129.085V129.095Z" fill="#37474F"/>
<path d="M73.3971 190.744C72.6063 190.357 64.9901 188.453 63.3116 188.041C59.9498 187.211 49.3404 184.783 47.3951 184.549C47.3418 184.544 47.3272 184.63 47.3757 184.651C49.0203 185.252 55.773 186.977 57.4515 187.384C60.823 188.194 72.4074 190.897 73.368 190.912C73.4504 190.912 73.4795 190.79 73.4019 190.754L73.3971 190.744Z" fill="#37474F"/>
<path d="M129.112 216.577C127.652 217.097 84.6516 216.929 83.0556 215.86C82.8664 215.743 82.7985 211.665 82.7888 206.076V205.964C82.7742 202.426 81.7361 172.19 81.7361 172.19L108.65 171.956L110.328 201.729C110.328 201.729 116.135 204.269 121.195 206.799C121.2 206.804 121.21 206.804 121.21 206.814C124.329 208.362 127.041 209.777 127.661 210.296C129.282 211.655 130.572 216.074 129.112 216.577Z" fill="#AD6359"/>
<path d="M129.112 216.572C127.647 217.087 84.6468 216.924 83.0556 215.855C82.8664 215.743 82.7985 211.66 82.7888 206.076V205.964C82.7888 205.72 82.7888 205.465 82.7791 205.216C82.7791 205.033 82.7791 204.854 82.7694 204.671C82.7694 204.407 82.7597 204.137 82.75 203.862C82.6918 201.51 82.5802 197.692 82.4492 193.513L109.863 193.325L110.333 201.724C110.333 201.724 116.14 204.269 121.2 206.794C121.205 206.799 121.214 206.799 121.214 206.804C124.334 208.352 127.045 209.767 127.666 210.286C129.282 211.65 130.582 216.063 129.117 216.567L129.112 216.572Z" fill="#EBEBEB"/>
<path d="M129.291 216.745C127.783 217.265 84.7291 216.99 83.0943 215.89C82.4733 215.478 81.8669 208.509 82.5024 200.808L110.26 201.021C110.26 201.021 126.162 208.866 127.836 210.276C129.5 211.686 130.8 216.231 129.296 216.75L129.291 216.745Z" fill="#FFC727"/>
<path d="M128.685 214.933C121.471 214.699 92.3405 214.48 85.1948 214.827C85.1366 214.827 85.1366 214.872 85.1948 214.872C92.3405 215.264 121.471 215.239 128.685 215.056C128.835 215.056 128.835 214.938 128.685 214.933Z" fill="#263238"/>
<path d="M112.516 201.795C109.63 201.734 106.273 202.783 104.463 205.252C104.396 205.348 104.522 205.45 104.609 205.404C107.229 204.01 109.717 202.971 112.565 202.167C112.764 202.111 112.725 201.8 112.516 201.795Z" fill="#263238"/>
<path d="M114.743 202.722C111.856 202.661 108.499 203.709 106.69 206.178C106.622 206.275 106.748 206.377 106.836 206.331C109.455 204.936 111.944 203.898 114.791 203.098C114.99 203.042 114.951 202.727 114.743 202.727V202.722Z" fill="#263238"/>
<path d="M116.965 203.648C114.078 203.587 110.721 204.636 108.912 207.104C108.844 207.201 108.97 207.303 109.057 207.257C111.677 205.862 114.166 204.824 117.013 204.025C117.212 203.969 117.173 203.653 116.965 203.653V203.648Z" fill="#263238"/>
<path d="M119.191 204.575C116.305 204.513 112.948 205.562 111.138 208.031C111.071 208.128 111.197 208.229 111.284 208.184C113.904 206.789 116.392 205.75 119.24 204.946C119.439 204.89 119.4 204.58 119.191 204.575Z" fill="#263238"/>
<path d="M113.021 200.808L81.4839 200.512C81.4839 200.512 81.8623 148.128 79.4804 144.936C76.3078 140.681 31.9347 140.778 22.412 126.896C13.8643 114.43 21.0779 96.7871 21.0779 96.7871L54.6864 95.7385C54.6864 95.7385 53.6385 101.338 51.572 106.846C51.572 106.846 92.0544 114.685 103.396 127.716C111.051 136.512 113.016 200.808 113.016 200.808H113.021Z" fill="#263238"/>
<path d="M57.4804 104.428C56.5102 104.606 55.5497 105.018 54.6328 105.385C53.6675 105.772 52.7166 106.209 51.7901 106.683C49.9515 107.625 48.2003 108.699 46.4733 109.839C46.4199 109.874 46.4733 109.951 46.5266 109.925C48.3458 108.933 50.2232 108.042 52.1054 107.192C53.0126 106.785 53.9149 106.372 54.822 105.965C55.734 105.553 56.7043 105.202 57.5677 104.692C57.6793 104.626 57.6211 104.402 57.4853 104.428H57.4804Z" fill="#37474F"/>
<path d="M55.4674 95.7233C55.0842 97.3318 54.7446 98.9556 54.308 100.549C54.1091 101.282 53.9102 102.025 53.6434 102.738C53.4202 103.338 53.0855 104.02 52.4209 104.153C51.6593 104.306 51.441 103.623 51.504 102.962C51.572 102.224 51.7514 101.486 51.8921 100.763C52.0522 99.9279 52.2123 99.0931 52.3578 98.2532C52.4306 97.8358 52.5034 97.4133 52.5713 96.9959C52.5907 96.889 52.6635 96.0847 52.7168 95.8556C52.7217 95.876 52.7362 95.8913 52.7605 95.8913H52.7847C52.7847 95.8913 52.8284 95.8709 52.8332 95.8454C52.8429 95.7844 52.8381 95.7691 52.7944 95.7233C52.775 95.7029 52.7459 95.7029 52.7265 95.7182C52.581 95.7996 52.5713 96.0134 52.5228 96.1661C52.3966 96.5734 52.2705 96.9806 52.1589 97.3929C51.9455 98.1615 51.7417 98.9302 51.5526 99.709C51.3682 100.483 51.1839 101.262 51.0044 102.035C50.8685 102.616 50.7085 103.226 50.854 103.822C51.0189 104.474 51.5137 104.799 52.0571 104.85C52.0328 104.901 51.9989 104.952 51.9746 105.008C51.9067 105.166 51.8582 105.334 51.8 105.497C51.7417 105.665 51.6884 105.828 51.6447 106.001C51.6253 106.082 51.6108 106.164 51.6011 106.25C51.5914 106.342 51.6108 106.433 51.6011 106.53C51.5817 106.673 51.7709 106.764 51.8388 106.622C51.8776 106.54 51.9358 106.474 51.9843 106.398C52.0328 106.316 52.0668 106.22 52.0959 106.128C52.1492 105.965 52.1929 105.807 52.2317 105.639C52.2705 105.476 52.319 105.313 52.3481 105.151C52.3675 105.054 52.3675 104.952 52.3772 104.855C52.6877 104.825 52.9982 104.708 53.2601 104.504C53.7161 104.143 53.983 103.588 54.177 103.033C54.4099 102.361 54.5893 101.669 54.7688 100.982C55.2151 99.2814 55.5935 97.5507 55.7488 95.7945C55.7633 95.6062 55.5159 95.54 55.4722 95.7335L55.4674 95.7233Z" fill="#37474F"/>
<path d="M35.4808 99.6632C35.3401 100.462 35.2528 101.267 35.0781 102.061C34.9083 102.834 34.7046 103.608 34.462 104.367C34.2292 105.089 33.943 105.812 33.5258 106.443C33.1231 107.049 32.5895 107.579 32.0365 108.037C30.9547 108.938 29.7322 109.655 28.4321 110.144C27.7772 110.388 27.1077 110.602 26.4286 110.76C26.0745 110.841 25.7155 110.908 25.3565 110.959C25.0557 110.999 24.7598 111.009 24.493 111.167C24.3766 111.233 24.396 111.422 24.5076 111.483C24.9684 111.717 25.6136 111.59 26.0987 111.534C26.6711 111.473 27.2436 111.371 27.8015 111.218C28.9269 110.918 30.0184 110.419 31.0177 109.793C31.9977 109.182 32.9824 108.419 33.7053 107.482C34.4572 106.515 34.8744 105.38 35.1412 104.173C35.4614 102.733 35.6845 101.165 35.6117 99.6784C35.6117 99.5919 35.4808 99.5766 35.4662 99.6683L35.4808 99.6632Z" fill="#37474F"/>
<path d="M84.2684 147.059C84.1859 146.107 84.0112 145.15 83.6765 144.254C82.978 142.376 81.4887 141.429 79.6889 140.951C77.5641 140.386 75.3714 140.05 73.2078 139.683C71.0006 139.307 68.7836 138.971 66.5715 138.65C62.0842 137.993 57.5873 137.388 53.1194 136.599C48.6709 135.815 44.2419 134.847 39.9244 133.478C35.9562 132.221 31.8813 130.663 28.7038 127.772C21.8637 121.552 21.6163 111.127 22.4507 102.402C22.5671 101.17 22.7127 99.9432 22.8534 98.7114C22.8631 98.6452 22.766 98.6248 22.7612 98.691C22.2179 103.603 21.5921 108.546 22.0578 113.494C22.4362 117.535 23.5665 121.597 25.798 124.957C28.112 128.444 31.5417 130.694 35.2431 132.267C39.2889 133.982 43.5676 135.138 47.8317 136.074C56.6995 138.024 65.7468 138.848 74.6729 140.452C75.7741 140.65 76.8704 140.859 77.9668 141.083C78.9709 141.287 79.9994 141.48 80.9405 141.918C82.9683 142.87 83.5455 144.936 83.7784 147.079C84.6273 154.898 85.8886 190.485 85.8789 191.732C85.8789 191.844 86.039 191.834 86.0439 191.722C86.2864 178.563 85.1173 157.107 84.2684 147.054V147.059Z" fill="#37474F"/>
<path d="M81.3916 162.829C81.348 159.388 81.251 160.9 81.1782 157.464C81.1103 154.221 81.1782 150.918 80.5767 147.716C80.3341 146.423 80.111 144.718 78.7915 144.122C78.1123 143.817 77.3604 143.654 76.6473 143.455C75.8711 143.241 75.0901 143.033 74.3042 142.855C70.6804 142.035 67.0178 141.521 63.3455 141.002C63.2776 140.992 63.2485 141.093 63.3213 141.109C66.426 141.735 69.5307 142.376 72.6111 143.109C74.1538 143.476 75.6916 143.862 77.2148 144.3C77.8406 144.478 78.6896 144.606 79.131 145.15C79.587 145.715 79.7229 146.632 79.8781 147.324C80.5864 150.465 80.533 153.743 80.6155 156.945C80.6979 160.269 80.7756 158.64 80.8677 161.964C80.9696 165.69 81.0618 169.431 81.3092 173.152C81.314 173.249 81.4596 173.249 81.4596 173.152C81.5275 169.711 81.4402 166.27 81.3916 162.829Z" fill="#37474F"/>
<path d="M110.023 194.058C109.169 193.865 101.344 193.742 99.6173 193.722C96.1633 193.681 85.3017 193.732 83.3564 193.951C83.3031 193.956 83.3031 194.048 83.3564 194.053C85.0883 194.262 92.0351 194.404 93.7572 194.414C97.216 194.435 109.082 194.425 110.023 194.221C110.105 194.201 110.105 194.078 110.023 194.058Z" fill="#37474F"/>
<path d="M51.7805 106.937C57.9705 107.65 64.1265 109.111 70.1128 110.887C76.1524 112.679 82.0805 114.909 87.8048 117.606C91.0211 119.123 94.1306 120.818 97.2208 122.6C97.2838 122.636 97.2208 122.727 97.1626 122.697C91.6226 119.668 85.8255 117.057 79.9605 114.817C74.115 112.582 68.1287 110.745 62.0454 109.36C58.6205 108.576 55.1714 107.97 51.7174 107.365C51.4894 107.324 51.5525 106.912 51.7805 106.937Z" fill="#37474F"/>
<path d="M17.4736 107.207C17.5706 107.319 56.981 104.29 56.981 104.29L56.6997 101.643C56.6997 101.643 58.577 99.5819 57.1266 94.12C54.0607 82.5599 47.9386 59.4957 45.8768 56.9607C43.3688 53.8811 39.0125 52.9292 35.806 54.9093C29.0775 59.063 19.1279 89.0602 16.4986 96.1511C15.2033 99.6481 17.6677 101.867 18.0606 103.512C18.0606 103.512 17.3475 107.07 17.4688 107.212L17.4736 107.207Z" fill="#FFC727"/>
<path d="M55.0697 101.465C38.6729 102.188 20.8548 103.517 19.4237 103.593C19.3558 103.593 19.3558 103.71 19.4237 103.705C36.6161 103.456 53.6531 101.837 55.0697 101.628C55.1667 101.613 55.1715 101.46 55.0697 101.465Z" fill="#263238"/>
<path d="M43.7666 64.4333C41.3556 63.9853 38.673 58.2689 38.3528 54.7566C38.3334 54.5173 39.4588 52.5881 40.725 50.1753C41.4866 48.7093 42.3016 47.06 42.9419 45.4973L51.3101 52.0944C51.3101 52.0944 49.0495 54.9551 47.9483 57.6886C47.8561 57.9177 47.793 58.1417 47.7494 58.3605C47.7397 58.3911 47.7348 58.4318 47.7203 58.4725C47.4098 59.7756 46.1 64.8609 43.7666 64.4333Z" fill="#FFC4C0"/>
<path d="M47.7493 58.3606C47.7396 58.3911 47.7348 58.4268 47.7202 58.4675C47.4097 58.386 47.0847 58.2537 46.7354 58.0959C41.3798 55.5253 42.9564 48.0069 43.5094 45.9453L45.6003 47.5946L51.31 52.0995C51.31 52.0995 49.0446 54.9603 47.9482 57.6937C47.856 57.9228 47.7881 58.1417 47.7445 58.3606H47.7493Z" fill="#263238"/>
<path d="M57.7717 34.7515C57.7717 34.7515 60.5999 36.869 60.4398 40.3406C60.2797 43.8122 58.7856 47.1311 58.4751 47.2329C58.1647 47.3347 57.7717 34.7515 57.7717 34.7515Z" fill="#263238"/>
<path d="M43.0339 35.5456C41.3943 39.1088 41.6853 50.2158 43.8683 53.0359C47.0312 57.1234 52.9981 58.4316 56.5054 54.2575C59.9061 50.2107 59.2851 35.739 56.7723 33.092C53.0757 29.1928 45.4498 30.2822 43.0291 35.5456H43.0339Z" fill="#FFC4C0"/>
<path d="M52.1396 44.1993C52.1347 44.1687 52.0862 44.2349 52.0862 44.2654C52.125 45.0137 52.0474 45.8791 51.4071 46.1387C51.3877 46.1489 51.3877 46.1845 51.4119 46.1794C52.1978 46.0471 52.2851 44.8966 52.1347 44.1942L52.1396 44.1993Z" fill="#263238"/>
<path d="M51.4846 43.4357C50.3349 43.3695 50.2961 45.7874 51.3634 45.8485C52.4112 45.9045 52.45 43.4917 51.4846 43.4357Z" fill="#263238"/>
<path d="M56.2679 44.3772C56.2728 44.3467 56.3213 44.4129 56.3213 44.4434C56.2873 45.1917 56.3698 46.052 57.0101 46.3116C57.0295 46.3217 57.0295 46.3574 57.0053 46.3523C56.2194 46.2199 56.1224 45.0746 56.2679 44.3722V44.3772Z" fill="#263238"/>
<path d="M56.9131 43.6087C58.0628 43.5375 58.1161 45.9554 57.0489 46.0215C56.0011 46.0877 55.9477 43.6698 56.9131 43.6087Z" fill="#263238"/>
<path d="M50.5726 41.8678C50.8879 41.8017 51.1693 41.6795 51.4798 41.5828C51.8242 41.4708 52.1104 41.4148 52.3481 41.1043C52.4742 40.9363 52.4403 40.6258 52.2947 40.4833C51.9649 40.1473 51.5089 40.1779 51.0868 40.2949C50.6308 40.4222 50.3058 40.6462 50.0293 41.0534C49.7625 41.4454 50.1554 41.9595 50.5726 41.8729V41.8678Z" fill="#263238"/>
<path d="M57.7813 41.5675C57.4612 41.5065 57.1798 41.3945 56.8693 41.3028C56.52 41.1959 56.2338 41.1501 55.9913 40.8447C55.8603 40.6818 55.8894 40.3713 56.0301 40.2237C56.3551 39.8775 56.8111 39.8979 57.238 40.0048C57.6989 40.1219 58.0239 40.3357 58.3101 40.7327C58.5866 41.1145 58.2034 41.6439 57.7862 41.5624L57.7813 41.5675Z" fill="#263238"/>
<path d="M50.8636 50.6945C51.0237 50.8829 51.1741 51.1374 51.4312 51.1781C51.6786 51.2188 51.9745 51.1221 52.2074 51.0458C52.2317 51.0407 52.2511 51.0661 52.2365 51.0865C52.0328 51.3614 51.6301 51.509 51.3051 51.4275C50.9849 51.3461 50.8491 51.0407 50.7909 50.7251C50.7812 50.6793 50.8394 50.6691 50.8636 50.6945Z" fill="#263238"/>
<path d="M51.7611 48.5107C52.1152 49.1877 52.6779 49.5848 53.3037 49.7629C53.5803 49.8444 53.881 49.8749 54.1721 49.8698C54.2303 49.8698 54.2885 49.8698 54.3419 49.8597C54.3952 49.8597 54.4437 49.8546 54.4971 49.8444C54.5796 49.8393 54.6329 49.768 54.6523 49.6866C54.6523 49.6561 54.6523 49.6306 54.6523 49.6051V49.5339C54.7106 48.9587 54.7154 48.0831 54.7154 48.0831C54.9095 48.2053 55.8991 48.7602 55.8991 48.4598C55.9233 45.9605 55.9524 43.1863 55.4722 40.6971C55.4625 40.6157 55.3412 40.6258 55.3412 40.7073C55.2248 43.1048 55.5158 45.5074 55.4382 47.9203C55.1229 47.7675 54.6038 47.4876 54.3176 47.4723C54.24 47.4876 54.337 49.1674 54.2934 49.427C54.2934 49.427 54.2934 49.4372 54.2885 49.4524C53.362 49.5084 52.6876 49.1674 51.8339 48.4496C51.7853 48.4038 51.7223 48.4496 51.7611 48.5107Z" fill="#263238"/>
<path d="M53.8569 49.5542C53.8569 49.5542 53.3329 50.1905 52.6683 50.3789C52.4209 50.4501 52.1638 50.4654 51.897 50.3687C51.3537 50.1701 51.3731 49.6357 51.5089 49.1877C51.6156 48.8161 51.8048 48.5056 51.8048 48.5056C51.8048 48.5056 52.5616 49.3659 53.8569 49.5542Z" fill="#263238"/>
<path d="M52.6683 50.3789C52.4209 50.4501 52.1638 50.4654 51.897 50.3687C51.3537 50.1702 51.3731 49.6357 51.5089 49.1877C52.1008 49.2997 52.6635 49.768 52.6683 50.3789Z" fill="#FF9ABB"/>
<path d="M43.0292 45.5329C44.1789 45.9299 45.5858 42.3158 45.9884 40.921C46.3474 39.6943 46.8131 35.7798 46.8713 35.5151C46.9344 35.2504 51.8388 39.1038 54.7738 38.2741C57.7087 37.4495 59.7122 34.7465 59.7801 33.4688C59.848 32.1912 56.297 28.8519 53.168 28.6127C50.0391 28.3734 45.7119 32.4508 45.7119 32.4508C45.7119 32.4508 47.1915 30.6793 47.143 30.5317C47.0993 30.3841 45.057 31.1833 44.6544 32.6849C44.6544 32.6849 45.0958 30.7964 44.9406 30.7557C44.7902 30.715 43.1796 32.3082 43.5095 33.5452C43.5095 33.5452 41.6564 35.1537 41.4478 36.9659C41.2392 38.7729 41.6709 45.0595 43.0195 45.5278L43.0292 45.5329Z" fill="#263238"/>
<path d="M56.8597 37.6836C55.9623 38.0909 55.0648 38.5388 54.0849 38.6508C53.0225 38.773 51.931 38.4675 50.9559 38.0501C49.9566 37.6225 49.0543 37.0117 48.2344 36.2736C47.5213 35.6271 46.8907 34.8534 46.1242 34.2731C45.935 34.1306 45.7022 34.4156 45.8186 34.6091C46.9635 36.4976 49.0203 38.101 51.019 38.8188C53.1244 39.5721 55.1279 39.1242 56.8743 37.7091C56.884 37.6989 56.8743 37.6785 56.8646 37.6836H56.8597Z" fill="#263238"/>
<path d="M44.8241 44.7287C44.8241 44.7287 43.2038 40.7633 41.535 41.3029C39.8662 41.8374 40.6084 47.2331 42.2287 48.3072C43.849 49.3761 44.8241 47.8185 44.8241 47.8185V44.7287Z" fill="#FFC4C0"/>
<path d="M41.7824 42.8402C41.7533 42.8301 41.7387 42.8708 41.763 42.886C42.8933 43.6801 43.3008 45.0189 43.5094 46.3627C43.2377 45.8028 42.7914 45.4312 42.088 45.757C42.0492 45.7723 42.0735 45.8333 42.1074 45.8333C42.6362 45.8333 42.9806 46.0013 43.2377 46.5002C43.4172 46.8514 43.5094 47.2688 43.6161 47.6557C43.6501 47.7829 43.8635 47.7677 43.8441 47.6251C43.8441 47.6149 43.8441 47.6048 43.8441 47.5946C44.2031 45.9555 43.4366 43.3798 41.7824 42.8453V42.8402Z" fill="#263238"/>
<path d="M47.3758 59.9843L44.7368 64.2195L39.4927 51.9722L37.8579 54.2934L42.4665 67.8641L44.6834 64.8201L46.0029 67.7521L47.6523 62.4429L47.3758 59.9843Z" fill="#EBEBEB"/>
<path d="M37.8579 54.2935C39.3035 58.9562 40.8413 63.5833 42.4131 68.1951L42.5829 67.9609L44.7901 64.9068L44.5573 64.8813L45.901 67.7981L46.0175 68.0475C46.5802 66.1895 47.1138 64.3163 47.6474 62.443C47.0605 64.1992 46.4638 65.9554 45.8962 67.7166L46.0902 67.7064L44.8047 64.7591L44.7125 64.5453L44.5718 64.7337L42.3403 67.7675L42.6071 67.8133C41.0742 63.288 39.5121 58.7729 37.8579 54.2985V54.2935Z" fill="#263238"/>
<path d="M34.205 62.8859C36.9847 74.9398 45.3771 95.7642 48.7243 98.4621C51.6884 100.849 66.4503 98.0803 72.9944 96.9757C75.4442 96.5634 72.5287 79.068 69.9188 79.5668C66.7899 80.1624 56.5007 81.0176 55.8749 80.4373C55.186 79.7959 46.91 67.1821 40.885 59.6383C35.4275 52.802 33.1572 58.3301 34.205 62.8859Z" fill="#FFC4C0"/>
<path d="M79.0583 78.6302C84.1229 78.9254 85.3793 79.8213 89.7793 77.6885C92.6657 76.2886 94.7565 77.6223 92.7433 80.3762C89.4494 84.8811 82.8374 85.9348 80.4458 85.609L79.0583 78.6251V78.6302Z" fill="#FFC4C0"/>
<path d="M65.0338 80.9056C65.0338 80.9056 71.1802 78.8237 76.6037 78.5794C80.3585 78.4114 88.5617 78.9968 94.6644 88.8669C96.1149 91.2084 96.5951 95.6217 92.9034 92.6999C90.2838 90.6231 89.2214 88.48 87.4848 87.5638C87.4848 87.5638 87.4605 93.2547 85.1708 94.6851C84.1472 95.3265 81.3141 97.0012 78.9274 97.9785C78.9274 97.9785 78.5878 97.4899 78.2337 96.8078C78.2337 96.8078 75.9731 97.9327 72.3251 96.7925L65.0193 80.9107L65.0338 80.9056Z" fill="#FFC4C0"/>
<path d="M80.2082 79.0171C81.746 80.31 84.9623 83.0995 86.83 86.3471C88.9111 89.9511 91.9915 97.4797 89.4399 99.0627C87.5673 100.223 86.1508 97.4593 86.1508 97.4593C86.1508 97.4593 86.8009 100.855 84.8895 101.516C83.1528 102.117 82.1778 99.9077 82.1778 99.9077C82.1778 99.9077 82.2311 102.035 80.4508 102.28C78.3066 102.57 78.5443 98.06 76.1284 96.3852C75.5851 96.0086 80.2034 79.0171 80.2034 79.0171H80.2082Z" fill="#FFC4C0"/>
<path d="M82.8377 88.0167C84.0941 89.4776 86.1364 93.5702 86.1946 97.3829C86.1946 97.4694 86.1364 97.5152 86.117 97.4389C85.2001 93.2546 83.5799 89.5642 82.8037 88.0371C82.794 88.0167 82.8231 88.0014 82.8377 88.0167Z" fill="#263238"/>
<path d="M79.4321 90.3226C80.3926 91.7021 82.3137 96.0136 82.2506 99.8822C82.2506 99.9688 82.1827 100.009 82.1681 99.9331C81.3823 95.5198 80.0822 91.9108 79.3933 90.343C79.3836 90.3226 79.4127 90.3073 79.4273 90.3226H79.4321Z" fill="#263238"/>
<path d="M71.5052 100.203L68.3132 78.508L56.2436 79.8111C51.965 73.7893 43.4028 61.7507 39.8469 58.05C35.6749 53.7131 32.5314 56.4669 33.7297 62.6211C36.4657 76.6907 45.8623 97.7595 48.5886 99.928C52.4937 103.038 71.5101 100.203 71.5101 100.203H71.5052Z" fill="#FFC727"/>
<path d="M66.6881 99.3019C66.2418 97.897 65.3298 91.865 65.1164 90.3582C64.9078 88.882 64.2529 82.7788 64.0394 81.2313C64.0297 81.1448 64.1413 81.1041 64.151 81.1906C64.3838 82.7177 66.7851 97.7901 66.7609 99.2866C66.7609 99.3375 66.7027 99.3477 66.6881 99.3019Z" fill="#263238"/>
<path d="M56.8838 101.384C55.1907 101.435 53.488 101.374 51.7998 101.15C50.752 100.992 49.6459 100.809 48.7096 100.218C48.1663 99.8263 47.754 99.2765 47.3562 98.742C43.5335 92.8627 41.1953 86.0061 38.7115 79.4243C37.5279 76.0901 36.3878 72.7407 35.3643 69.3455C36.4703 72.3131 37.945 76.3752 39.0656 79.2767C41.6561 85.8024 43.975 92.5624 47.6376 98.5231C48.1372 99.2256 48.6369 99.9535 49.4131 100.259C50.1747 100.6 51.0091 100.773 51.8338 100.926C53.4977 101.216 55.1956 101.328 56.8838 101.379V101.384Z" fill="#263238"/>
<path d="M36.4608 72.6898C35.9999 72.079 35.5585 71.4223 35.3547 70.6689C35.6992 71.346 36.1455 71.9975 36.4608 72.6898Z" fill="#263238"/>
<path d="M46.8518 67.0344C50.1166 71.0201 52.8769 75.4487 56.1174 79.4548C56.1659 79.5209 56.2435 79.5769 56.2872 79.6278C56.8257 79.6533 57.4515 79.5769 58.0385 79.5311L61.4585 79.185L68.3082 78.4825H68.3277V78.4978L68.3907 79.0933L68.2937 78.5029L68.3131 78.5181C64.6214 79.0832 60.9249 79.6126 57.2041 79.9536C56.8548 79.974 56.5346 80.03 56.1756 79.974C56.0349 79.9078 55.9573 79.806 55.8603 79.7093C52.6343 75.7439 49.8643 71.1677 46.8518 67.0293V67.0344Z" fill="#263238"/>
<path d="M47.6814 67.2888C48.0695 67.9506 48.4382 68.6632 48.5546 69.4369C48.2878 68.7192 47.9191 68.0167 47.6814 67.2888Z" fill="#263238"/>
<path d="M0.368652 216.511C97.1919 216.201 205.803 216.196 302.631 216.511C205.808 216.827 97.1967 216.822 0.368652 216.511Z" fill="#263238"/>
<path d="M168.447 34.4648C175.102 24.6421 172.908 11.0181 163.547 4.03488C154.186 -2.94836 141.202 -0.64648 134.547 9.17626C127.892 18.999 130.086 32.623 139.447 39.6062C148.808 46.5894 161.792 44.2876 168.447 34.4648Z" fill="#FFC727"/>
<path opacity="0.1" d="M172.245 23.5887C172.921 12.1124 164.604 2.2335 153.667 1.52354C142.73 0.813579 133.315 9.54141 132.638 21.0177C131.962 32.494 140.28 42.3729 151.216 43.0829C162.153 43.7928 171.568 35.065 172.245 23.5887Z" fill="black"/>
<path d="M170.916 24.6839C172.165 13.9911 164.917 4.26002 154.727 2.94899C144.537 1.63797 135.263 9.24343 134.013 19.9363C132.764 30.6291 140.012 40.3602 150.202 41.6712C160.393 42.9822 169.667 35.3767 170.916 24.6839Z" fill="white"/>
<path opacity="0.5" d="M170.623 18.167C162.158 23.5474 148.245 32.3791 140.469 37.2149C138.286 35.2806 136.535 32.8322 135.39 30.0478L161.105 5.03906C165.893 7.68602 169.444 12.4607 170.618 18.167H170.623Z" fill="#EBEBEB"/>
<path opacity="0.5" d="M171.031 22.9878C170.958 25.2173 170.531 27.3502 169.803 29.3252L146.62 40.8293C145.601 40.4781 144.621 40.0352 143.69 39.5109C150.695 35.2656 163.492 27.5385 171.031 22.9878Z" fill="#EBEBEB"/>
<path d="M152.63 4.21484H152.271V7.17232H152.63V4.21484Z" fill="#263238"/>
<path d="M143.985 6.5387L143.674 6.72705L145.083 9.2883L145.394 9.09995L143.985 6.5387Z" fill="#263238"/>
<path d="M137.606 13.0957L137.427 13.4219L139.868 14.9006L140.047 14.5744L137.606 13.0957Z" fill="#263238"/>
<path d="M138.034 22.1177H135.215V22.4944H138.034V22.1177Z" fill="#263238"/>
<path d="M139.876 29.711L137.435 31.1897L137.615 31.5159L140.056 30.0372L139.876 29.711Z" fill="#263238"/>
<path d="M145.082 35.3166L143.674 37.8787L143.985 38.0668L145.393 35.5048L145.082 35.3166Z" fill="#263238"/>
<path d="M152.63 37.4392H152.271V40.3967H152.63V37.4392Z" fill="#263238"/>
<path d="M159.82 35.32L159.51 35.5083L160.919 38.0695L161.23 37.8812L159.82 35.32Z" fill="#263238"/>
<path d="M165.026 29.6994L164.847 30.0256L167.288 31.5044L167.467 31.1782L165.026 29.6994Z" fill="#263238"/>
<path d="M169.692 22.1177H166.873V22.4944H169.692V22.1177Z" fill="#263238"/>
<path d="M167.289 13.0872L164.848 14.5659L165.027 14.8921L167.468 13.4134L167.289 13.0872Z" fill="#263238"/>
<path d="M160.922 6.54638L159.514 9.1084L159.825 9.29657L161.233 6.73455L160.922 6.54638Z" fill="#263238"/>
<path d="M152.722 5.55343L153.334 23.624L151.573 23.5986L152.242 5.54834L152.722 5.55343Z" fill="#455A64"/>
<path d="M163.448 16.0039L151.864 23.7615L151.02 22.1377L163.22 15.561L163.448 16.0039Z" fill="#263238"/>
<path d="M153.057 22.3055C153.057 22.6567 152.786 22.9367 152.456 22.9367C152.126 22.9367 151.854 22.6517 151.854 22.3055C151.854 21.9594 152.126 21.6743 152.456 21.6743C152.786 21.6743 153.057 21.9594 153.057 22.3055Z" fill="#FFC727"/>
<path d="M141.318 100.188H50.6892V103.13H141.318V100.188Z" fill="#455A64"/>
<path d="M138.94 169.65H53.0613V172.592H138.94V169.65Z" fill="#455A64"/>
<path d="M136.248 103.135H55.7537V109.269H136.248V103.135Z" fill="#37474F"/>
<path d="M47.3661 216.476H45.2996L59.8529 109.269H65.5772L47.3661 216.476Z" fill="#455A64"/>
<path d="M144.64 216.476H146.707L132.154 109.269H126.429L144.64 216.476Z" fill="#455A64"/>
<path d="M161.682 103.135L252.311 103.135V100.193L161.682 100.193V103.135Z" fill="#455A64"/>
<path d="M164.059 172.592H249.938V169.65H164.059V172.592Z" fill="#455A64"/>
<path d="M166.752 109.264L247.246 109.264V103.13L166.752 103.13V109.264Z" fill="#37474F"/>
<path d="M255.639 216.476H257.705L243.152 109.269H237.427L255.639 216.476Z" fill="#455A64"/>
<path d="M158.359 216.476H156.293L170.846 109.269H176.57L158.359 216.476Z" fill="#455A64"/>
<path d="M125.91 100.188H98.8022V98.3602L122.044 97.108L114.137 67.3348H110.809V64.2551H116.368L125.91 100.188Z" fill="#DBDBDB"/>
<path d="M113.714 64.2551L112.667 67.3399H110.813V64.2551H113.714Z" fill="#C7C7C7"/>
<path d="M112.009 33.2805L109.031 32.7136L98.7633 92.1156L101.742 92.6825L112.009 33.2805Z" fill="#C7C7C7"/>
<path d="M115.121 48.1188L109.625 79.918L101.737 92.6845L112.007 33.2805L115.121 48.1188Z" fill="#DBDBDB"/>
<path d="M93.2042 100.188V96.9553L66.0962 98.3602V100.188H93.2042Z" fill="#DBDBDB"/>
<path d="M177.089 100.188H204.202V98.3602L180.956 97.108L188.863 67.3348H192.191V64.2551H186.636L177.089 100.188Z" fill="#DBDBDB"/>
<path d="M189.285 64.2551L190.333 67.3399H192.191V64.2551H189.285Z" fill="#C7C7C7"/>
<path d="M201.263 92.6901L204.241 92.1233L193.974 32.7213L190.995 33.2881L201.263 92.6901Z" fill="#C7C7C7"/>
<path d="M187.883 48.1188L193.379 79.918L201.262 92.6845L190.997 33.2805L187.883 48.1188Z" fill="#DBDBDB"/>
<path d="M209.795 100.188V96.9553L236.903 98.3602V100.188H209.795Z" fill="#DBDBDB"/>
<path d="M176.769 100.223H194.01V96.0847H176.769V100.223Z" fill="#263238"/>
<path d="M167.368 100.223H176.769V96.0847H167.368V100.223Z" fill="#263238"/>
<path d="M176.769 99.7957H194.01V96.5175H176.769V99.7957Z" fill="white"/>
<path d="M192.894 99.1186C191.551 99.1338 190.207 99.1491 188.863 99.1542L184.832 99.1644L180.801 99.1542C179.457 99.1491 178.113 99.1338 176.769 99.1186C178.113 99.1033 179.457 99.088 180.801 99.0829L184.832 99.0728L188.863 99.0829C190.207 99.088 191.551 99.1033 192.894 99.1186Z" fill="#DBDBDB"/>
<path d="M192.894 98.4772C191.551 98.4925 190.207 98.5078 188.863 98.5128L184.832 98.523L180.801 98.5128C179.457 98.5078 178.113 98.4925 176.769 98.4772C178.113 98.4619 179.457 98.4467 180.801 98.4416L184.832 98.4314L188.863 98.4416C190.207 98.4467 191.551 98.4619 192.894 98.4772Z" fill="#DBDBDB"/>
<path d="M192.894 97.8307C191.551 97.846 190.207 97.8613 188.863 97.8664L184.832 97.8765L180.801 97.8664C179.457 97.8613 178.113 97.846 176.769 97.8307C178.113 97.8155 179.457 97.8002 180.801 97.7951L184.832 97.7849L188.863 97.7951C190.207 97.8002 191.551 97.8155 192.894 97.8307Z" fill="#DBDBDB"/>
<path d="M192.894 97.1894C191.551 97.2046 190.207 97.2199 188.863 97.225L184.832 97.2352L180.801 97.225C179.457 97.2199 178.113 97.2046 176.769 97.1894C178.113 97.1741 179.457 97.1588 180.801 97.1537L184.832 97.1436L188.863 97.1537C190.207 97.1588 191.551 97.1741 192.894 97.1894Z" fill="#DBDBDB"/>
<path d="M191.085 97.5863V100.345L189.518 98.9709L187.951 100.345V97.5863C187.951 97.3522 187.772 97.1638 187.549 97.1638H190.687C190.91 97.1638 191.09 97.3522 191.09 97.5863H191.085Z" fill="#FFC727"/>
<path d="M194.098 93.1223H165.427V96.09H194.098V93.1223Z" fill="#37474F"/>
<path d="M191.056 93.1223H188.383V96.09H191.056V93.1223Z" fill="#455A64"/>
<path d="M186.632 93.1223H185.594V96.09H186.632V93.1223Z" fill="#455A64"/>
<path d="M179.913 93.1223H197.755V88.541H179.913V93.1223Z" fill="#FFC727"/>
<path d="M166.291 93.1223H179.918V88.541H166.291V93.1223Z" fill="#FFC727"/>
<path opacity="0.2" d="M166.291 93.1223H179.918V88.541H166.291V93.1223Z" fill="black"/>
<path d="M180.505 92.6438H197.76V89.0144H180.505V92.6438Z" fill="white"/>
<path d="M196.64 91.8955C195.296 91.9209 193.952 91.9413 192.603 91.9515L188.567 91.9667L184.531 91.9515C183.187 91.9413 181.844 91.926 180.495 91.8955C181.839 91.87 183.183 91.8497 184.531 91.8395L188.567 91.8242L192.603 91.8395C193.947 91.8497 195.291 91.8649 196.64 91.8955Z" fill="#DBDBDB"/>
<path d="M196.64 91.1828C195.296 91.2083 193.952 91.2286 192.603 91.2388L188.567 91.2541L184.531 91.2388C183.187 91.2286 181.844 91.2134 180.495 91.1828C181.839 91.1574 183.183 91.137 184.531 91.1268L188.567 91.1116L192.603 91.1268C193.947 91.137 195.291 91.1523 196.64 91.1828Z" fill="#DBDBDB"/>
<path d="M196.64 90.4702C195.296 90.4956 193.952 90.516 192.603 90.5262L188.567 90.5415L184.531 90.5262C183.187 90.516 181.844 90.5007 180.495 90.4702C181.839 90.4447 183.183 90.4244 184.531 90.4142L188.567 90.3989L192.603 90.4142C193.947 90.4244 195.291 90.4396 196.64 90.4702Z" fill="#DBDBDB"/>
<path d="M196.64 89.7575C195.296 89.783 193.952 89.8034 192.603 89.8135L188.567 89.8288L184.531 89.8135C183.187 89.8034 181.844 89.783 180.495 89.7575C181.839 89.7321 183.183 89.7117 184.531 89.7015L188.567 89.6863L192.603 89.7015C193.947 89.7117 195.291 89.727 196.64 89.7575Z" fill="#DBDBDB"/>
<path d="M183.774 83.9546H168.115V88.5359H183.774V83.9546Z" fill="#455A64"/>
<path d="M192.647 83.9546H183.77V88.5359H192.647V83.9546Z" fill="#455A64"/>
<path d="M183.774 84.428H168.115V88.0574H183.774V84.428Z" fill="white"/>
<path d="M169.129 85.1762C170.351 85.1508 171.569 85.1304 172.791 85.1203L176.454 85.105L180.117 85.1203C181.339 85.1304 182.557 85.1457 183.779 85.1762C182.557 85.2017 181.339 85.2221 180.117 85.2322L176.454 85.2475L172.791 85.2322C171.569 85.2221 170.351 85.2068 169.129 85.1762Z" fill="#DBDBDB"/>
<path d="M169.129 85.8889C170.351 85.8634 171.569 85.8431 172.791 85.8329L176.454 85.8176L180.117 85.8329C181.339 85.8431 182.557 85.8583 183.779 85.8889C182.557 85.9143 181.339 85.9347 180.117 85.9449L176.454 85.9602L172.791 85.9449C171.569 85.9347 170.351 85.9194 169.129 85.8889Z" fill="#DBDBDB"/>
<path d="M169.129 86.6015C170.351 86.5761 171.569 86.5557 172.791 86.5455L176.454 86.5303L180.117 86.5455C181.339 86.5557 182.557 86.571 183.779 86.6015C182.557 86.627 181.339 86.6474 180.117 86.6575L176.454 86.6728L172.791 86.6575C171.569 86.6474 170.351 86.6321 169.129 86.6015Z" fill="#DBDBDB"/>
<path d="M169.129 87.3142C170.351 87.2887 171.569 87.2684 172.791 87.2582L176.454 87.2429L180.117 87.2582C181.339 87.2684 182.557 87.2887 183.779 87.3142C182.557 87.3396 181.339 87.36 180.117 87.3702L176.454 87.3854L172.791 87.3702C171.569 87.36 170.351 87.3447 169.129 87.3142Z" fill="#DBDBDB"/>
<path d="M171.331 85.5988V89.7016L172.898 88.3272L174.465 89.7016V85.5988C174.465 85.3646 174.645 85.1763 174.868 85.1763H171.729C171.506 85.1763 171.326 85.3646 171.326 85.5988H171.331Z" fill="#263238"/>
<path d="M96.3138 45.6448H73.5136H65.844V49.6203H61.8079L65.844 53.8555V64.3109H96.3138V61.72V45.6448Z" fill="white"/>
<path d="M96.3138 45.6447C96.3041 45.5785 65.3347 45.9756 65.9653 45.6447L65.9993 49.6202V49.7831H65.8392L61.8031 49.8086L61.9292 49.4879L65.9847 53.7027L66.043 53.7638V53.8554L66.0672 64.316L65.8344 64.0716C73.4263 64.0615 88.717 64.092 96.3041 64.1124L96.115 64.3109C96.1344 59.6583 96.2459 50.2922 96.3041 45.6396L96.3138 45.6447ZM96.3138 45.6447C96.3721 50.3991 96.4836 59.7551 96.5079 64.5145C88.8092 64.5349 73.5379 64.5654 65.8441 64.5603H65.6112V64.316L65.6355 53.8554L65.6937 54.0081L61.677 49.7526L61.3713 49.4268H61.8079L65.8441 49.4523L65.684 49.6202L65.7179 45.6447V45.5124C65.7955 45.4716 96.2168 45.6702 96.3138 45.6447Z" fill="#263238"/>
<path d="M86.1943 54.9752C86.1943 55.7591 86.8007 56.3903 87.5429 56.3903C88.2852 56.3903 88.8916 55.754 88.8916 54.9752C88.8916 54.1963 88.2852 53.5601 87.5429 53.5601C86.8007 53.5601 86.1943 54.1963 86.1943 54.9752Z" fill="#263238"/>
<path d="M79.4561 54.9752C79.4561 55.7591 80.0624 56.3903 80.8047 56.3903C81.5469 56.3903 82.1533 55.754 82.1533 54.9752C82.1533 54.1963 81.5469 53.5601 80.8047 53.5601C80.0624 53.5601 79.4561 54.1963 79.4561 54.9752Z" fill="#263238"/>
<path d="M72.7131 54.9752C72.7131 55.7591 73.3195 56.3903 74.0617 56.3903C74.804 56.3903 75.4103 55.754 75.4103 54.9752C75.4103 54.1963 74.804 53.5601 74.0617 53.5601C73.3195 53.5601 72.7131 54.1963 72.7131 54.9752Z" fill="#263238"/>
</g>
<defs>
<clipPath id="clip0_207_759">
<rect width="303" height="217" fill="white"/>
</clipPath>
</defs>
</svg>
