<svg width="1464" height="113" viewBox="0 0 1464 113" fill="none" xmlns="http://www.w3.org/2000/svg">
<path fill-rule="evenodd" clip-rule="evenodd" d="M0 0.604797L61 9.96814C122 29.7352 223.667 57.145 366 49.2222C485.967 49.2222 610 14.9966 732 14.9966C854 14.9966 976 33.6945 1098 50.1671C1229.66 64.0265 1342 66.4817 1403 69.7762L1464 73.0707V112.605H1403C1342 112.605 1220 112.605 1098 112.605C976 112.605 854 112.605 732 112.605C610 112.605 488 112.605 366 112.605C244 112.605 122 112.605 61 112.605H0V0.604797Z" fill="#405BF5"/>
</svg>
